<svg width="375" height="811" viewBox="0 0 375 811" fill="none" xmlns="http://www.w3.org/2000/svg">
<g opacity="0.13" clip-path="url(#clip0_521_188)">
<path d="M103.225 115.5V85.225V77.1C103.225 76.4125 102.662 75.85 101.975 75.85H63.6625L100.237 64.45C100.55 64.35 100.812 64.1375 100.975 63.8375C101.125 63.55 101.162 63.2 101.062 62.8875L98.6375 55.125C98.425 54.4625 97.7375 54.1 97.075 54.3L52.65 68.15C52.3375 68.25 52.075 68.4625 51.9125 68.7625C51.7625 69.05 51.725 69.4 51.825 69.7125L54.1875 77.2875V85.225V115.5C54.1875 116.187 54.75 116.75 55.4375 116.75H101.962C102.662 116.75 103.225 116.187 103.225 115.5ZM100.725 83.975H93.225L97.3875 78.35H100.725V83.975ZM83.2 83.975L87.3625 78.35H94.275L90.1125 83.975H83.2ZM73.1625 83.975L77.325 78.35H84.2375L80.075 83.975H73.1625ZM63.1375 83.975L67.3 78.35H74.2125L70.05 83.975H63.1375ZM56.7 83.975V78.35H64.2L60.0375 83.975H56.7ZM67.35 66.1875L73 70.325L66.4 72.3875L60.75 68.25L67.35 66.1875ZM76.925 63.2L82.575 67.3375L75.975 69.4L70.325 65.2625L76.925 63.2ZM86.5 60.225L92.15 64.3625L85.55 66.425L79.9 62.2875L86.5 60.225ZM98.3 62.4375L95.1125 63.425L89.4625 59.2875L96.625 57.05L98.3 62.4375ZM57.775 69.1625L63.425 73.3L56.2625 75.5375L54.5875 70.1625L57.775 69.1625ZM100.725 114.25H56.7V86.475H100.725V114.25Z" fill="#E0E0FF"/>
<path d="M75.45 93.025C75.45 93.7125 76.0125 94.275 76.7 94.275H93.575C94.2625 94.275 94.825 93.7125 94.825 93.025C94.825 92.3375 94.2625 91.775 93.575 91.775H76.7C76.0125 91.775 75.45 92.3375 75.45 93.025Z" fill="#E0E0FF"/>
<path d="M63.85 94.275H72.55C73.2375 94.275 73.8 93.7125 73.8 93.025C73.8 92.3375 73.2375 91.775 72.55 91.775H63.85C63.1625 91.775 62.6 92.3375 62.6 93.025C62.6 93.7125 63.15 94.275 63.85 94.275Z" fill="#E0E0FF"/>
<path d="M93.575 99.1125H63.85C63.1625 99.1125 62.6 99.675 62.6 100.362C62.6 101.05 63.1625 101.612 63.85 101.612H93.575C94.2625 101.612 94.825 101.05 94.825 100.362C94.825 99.675 94.2625 99.1125 93.575 99.1125Z" fill="#E0E0FF"/>
<path d="M93.575 106.45H85.3125C84.625 106.45 84.0625 107.013 84.0625 107.7C84.0625 108.388 84.625 108.95 85.3125 108.95H93.575C94.2625 108.95 94.825 108.388 94.825 107.7C94.825 107.013 94.2625 106.45 93.575 106.45Z" fill="#E0E0FF"/>
<path d="M81.25 106.45H63.85C63.1625 106.45 62.6 107.013 62.6 107.7C62.6 108.388 63.1625 108.95 63.85 108.95H81.25C81.9375 108.95 82.5 108.388 82.5 107.7C82.5 107.013 81.9375 106.45 81.25 106.45Z" fill="#E0E0FF"/>
<g clip-path="url(#clip1_521_188)">
<path d="M201.291 246.37L180.953 221.495L175.496 214.819C175.034 214.254 174.194 214.17 173.629 214.632L142.15 240.368L164.543 206.433C164.733 206.14 164.806 205.79 164.738 205.434C164.668 205.097 164.464 204.784 164.172 204.595L156.965 199.846C156.345 199.444 155.537 199.608 155.127 200.217L127.929 241.439C127.74 241.731 127.667 242.082 127.735 242.438C127.805 242.775 128.009 243.088 128.301 243.277L135.331 247.914L140.663 254.436L161 279.311C161.462 279.876 162.302 279.96 162.867 279.498L201.093 248.245C201.668 247.775 201.752 246.935 201.291 246.37ZM178.06 222.147L171.897 227.186L171.539 219.768L174.281 217.526L178.06 222.147ZM163.661 233.92L163.302 226.502L168.982 221.859L169.34 229.276L163.661 233.92ZM155.413 240.662L155.055 233.245L160.734 228.601L161.093 236.019L155.413 240.662ZM147.177 247.397L146.818 239.979L152.498 235.335L152.856 242.753L147.177 247.397ZM141.887 251.721L138.109 247.099L144.271 242.061L144.63 249.479L141.887 251.721ZM138.689 229.952L146.111 229.556L142.073 235.684L134.652 236.08L138.689 229.952ZM144.549 221.066L151.971 220.67L147.934 226.798L140.512 227.194L144.549 221.066ZM150.418 212.189L157.84 211.793L153.802 217.922L146.381 218.317L150.418 212.189ZM161.599 206.081L159.644 209.033L152.222 209.429L156.604 202.779L161.599 206.081ZM132.82 238.829L140.242 238.433L135.86 245.082L130.873 241.791L132.82 238.829ZM198.397 247.022L162.225 276.596L143.567 253.775L179.739 224.202L198.397 247.022Z" fill="#E0E0FF"/>
<path d="M163.372 246.562C163.834 247.126 164.674 247.211 165.239 246.749L179.104 235.413C179.669 234.951 179.753 234.111 179.291 233.546C178.83 232.982 177.99 232.897 177.425 233.359L163.56 244.695C162.995 245.157 162.91 245.997 163.372 246.562Z" fill="#E0E0FF"/>
<path d="M154.681 255.381L161.829 249.537C162.394 249.075 162.478 248.235 162.017 247.67C161.555 247.105 160.715 247.021 160.15 247.483L153.002 253.327C152.437 253.789 152.352 254.629 152.814 255.194C153.276 255.758 154.106 255.851 154.681 255.381Z" fill="#E0E0FF"/>
<path d="M182.354 239.388L157.931 259.356C157.366 259.817 157.281 260.657 157.743 261.222C158.205 261.787 159.045 261.871 159.61 261.41L184.033 241.442C184.598 240.98 184.682 240.14 184.22 239.575C183.759 239.01 182.918 238.926 182.354 239.388Z" fill="#E0E0FF"/>
<path d="M187.283 245.417L180.494 250.967C179.929 251.429 179.845 252.269 180.306 252.834C180.768 253.399 181.608 253.483 182.173 253.021L188.962 247.471C189.527 247.009 189.611 246.169 189.149 245.604C188.687 245.039 187.847 244.955 187.283 245.417Z" fill="#E0E0FF"/>
<path d="M177.156 253.696L162.86 265.384C162.295 265.846 162.21 266.686 162.672 267.251C163.134 267.816 163.974 267.9 164.539 267.438L178.835 255.75C179.4 255.288 179.485 254.448 179.023 253.883C178.561 253.318 177.721 253.234 177.156 253.696Z" fill="#E0E0FF"/>
</g>
<g clip-path="url(#clip2_521_188)">
<path d="M356.974 129.357L380.907 98.6897L387.33 90.4594C387.874 89.763 387.749 88.7485 387.052 88.205L348.243 57.9172L394.305 75.2837C394.7 75.4294 395.134 75.4217 395.536 75.2463C395.915 75.0736 396.23 74.7487 396.376 74.3531L400.056 64.5729C400.364 63.7339 399.954 62.8232 399.125 62.502L343.175 41.4115C342.78 41.2658 342.346 41.2735 341.944 41.449C341.565 41.6216 341.25 41.9465 341.104 42.3421L337.509 51.8829L331.234 59.9233L307.3 90.5907C306.757 91.2871 306.882 92.3016 307.578 92.8451L354.706 129.625C355.416 130.179 356.43 130.053 356.974 129.357ZM379.363 95.4471L371.766 89.518L380.429 87.1108L383.81 89.7492L379.363 95.4471ZM361.611 81.5928L370.274 79.1856L377.276 84.6502L368.613 87.0575L361.611 81.5928ZM351.443 73.6577L360.107 71.2505L367.109 76.7151L358.445 79.1224L351.443 73.6577ZM341.288 65.7325L349.952 63.3252L356.954 68.7899L348.29 71.1971L341.288 65.7325ZM334.767 60.6434L339.214 54.9455L346.811 60.8745L338.148 63.2818L334.767 60.6434ZM359.617 51.0446L362.07 59.7023L353.754 56.574L351.301 47.9163L359.617 51.0446ZM371.678 55.5879L374.131 64.2456L365.814 61.1172L363.362 52.4595L371.678 55.5879ZM383.729 60.1438L386.181 68.8015L377.865 65.6731L375.413 57.0154L383.729 60.1438ZM393.933 71.7134L389.924 70.1938L387.471 61.5361L396.495 64.9319L393.933 71.7134ZM347.566 46.4887L350.019 55.1464L340.995 51.7506L343.547 44.9818L347.566 46.4887ZM355.429 126.115L310.834 91.3108L332.791 63.1758L377.387 97.9795L355.429 126.115Z" fill="#E0E0FF"/>
<path d="M346.606 84.6334C346.063 85.3298 346.188 86.3443 346.884 86.8878L363.978 100.228C364.674 100.772 365.689 100.647 366.232 99.9502C366.776 99.2538 366.651 98.2393 365.954 97.6958L348.86 84.3554C348.164 83.8119 347.15 83.937 346.606 84.6334Z" fill="#E0E0FF"/>
<path d="M333.868 76.7293L342.68 83.607C343.377 84.1505 344.391 84.0254 344.935 83.329C345.478 82.6326 345.353 81.6181 344.657 81.0746L335.844 74.1969C335.147 73.6534 334.133 73.7785 333.59 74.4749C333.046 75.1713 333.158 76.1759 333.868 76.7293Z" fill="#E0E0FF"/>
<path d="M360.154 105.128L330.043 81.6295C329.347 81.086 328.332 81.2111 327.789 81.9075C327.245 82.6039 327.37 83.6184 328.067 84.1619L358.177 107.661C358.874 108.204 359.888 108.079 360.432 107.383C360.975 106.686 360.85 105.672 360.154 105.128Z" fill="#E0E0FF"/>
<path d="M354.353 112.561L345.983 106.029C345.287 105.486 344.272 105.611 343.729 106.307C343.185 107.004 343.311 108.018 344.007 108.562L352.377 115.093C353.073 115.637 354.087 115.512 354.631 114.815C355.174 114.119 355.049 113.105 354.353 112.561Z" fill="#E0E0FF"/>
<path d="M341.868 102.818L324.243 89.0621C323.546 88.5186 322.532 88.6437 321.988 89.3401C321.445 90.0365 321.57 91.051 322.266 91.5945L339.892 105.35C340.588 105.893 341.603 105.768 342.146 105.072C342.69 104.376 342.565 103.361 341.868 102.818Z" fill="#E0E0FF"/>
</g>
<g clip-path="url(#clip3_521_188)">
<path d="M87.0935 460.581L97.2694 433.97L100 426.829C100.231 426.224 99.926 425.541 99.3217 425.31L65.6463 412.433L101.626 414.706C101.935 414.723 102.237 414.624 102.48 414.415C102.709 414.213 102.859 413.918 102.877 413.61L103.354 405.972C103.39 405.318 102.908 404.768 102.258 404.721L58.5548 401.963C58.2465 401.946 57.9443 402.044 57.7007 402.253C57.4722 402.456 57.3216 402.751 57.3045 403.059L56.835 410.511L54.167 417.488L43.9912 444.099C43.7601 444.703 44.0655 445.387 44.6697 445.618L85.5636 461.255C86.1789 461.491 86.8624 461.185 87.0935 460.581ZM95.4921 432.031L88.8998 429.511L94.4492 425.965L97.3827 427.087L95.4921 432.031ZM80.0882 426.141L85.6375 422.596L91.7134 424.919L86.164 428.464L80.0882 426.141ZM71.2656 422.767L76.8149 419.222L82.8908 421.545L77.3414 425.091L71.2656 422.767ZM62.4539 419.398L68.0033 415.853L74.0791 418.176L68.5298 421.721L62.4539 419.398ZM56.7956 417.234L58.6862 412.29L65.2785 414.811L59.7291 418.356L56.7956 417.234ZM72.1352 405.179L75.7107 410.715L69.2163 410.309L65.6408 404.773L72.1352 405.179ZM81.5555 405.771L85.1309 411.307L78.6365 410.902L75.061 405.366L81.5555 405.771ZM90.9715 406.375L94.547 411.91L88.0526 411.505L84.4771 405.969L90.9715 406.375ZM100.6 412.286L97.466 412.082L93.8905 406.546L100.938 406.987L100.6 412.286ZM62.7192 404.576L66.2947 410.111L59.247 409.671L59.5814 404.383L62.7192 404.576ZM85.3162 458.642L46.6197 443.845L55.9553 419.431L94.6518 434.229L85.3162 458.642Z" fill="#E0E0FF"/>
<path d="M70.2343 431.491C70.0033 432.095 70.3086 432.778 70.9129 433.01L85.7455 438.681C86.3497 438.913 87.0332 438.607 87.2643 438.003C87.4954 437.399 87.19 436.715 86.5857 436.484L71.7532 430.812C71.1489 430.581 70.4654 430.886 70.2343 431.491Z" fill="#E0E0FF"/>
<path d="M59.6182 428.69L67.2652 431.615C67.8695 431.846 68.553 431.54 68.7841 430.936C69.0152 430.332 68.7098 429.648 68.1055 429.417L60.4585 426.493C59.8542 426.262 59.1707 426.567 58.9397 427.172C58.7086 427.776 59.0029 428.455 59.6182 428.69Z" fill="#E0E0FF"/>
<path d="M84.1195 442.933L57.9923 432.942C57.388 432.711 56.7045 433.017 56.4734 433.621C56.2423 434.225 56.5477 434.909 57.152 435.14L83.2792 445.131C83.8835 445.362 84.567 445.057 84.7981 444.452C85.0292 443.848 84.7238 443.165 84.1195 442.933Z" fill="#E0E0FF"/>
<path d="M81.6533 449.383L74.3908 446.606C73.7865 446.375 73.103 446.68 72.872 447.284C72.6409 447.889 72.9462 448.572 73.5505 448.803L80.813 451.58C81.4173 451.811 82.1008 451.506 82.3318 450.902C82.5629 450.297 82.2576 449.614 81.6533 449.383Z" fill="#E0E0FF"/>
<path d="M70.82 445.24L55.526 439.392C54.9217 439.161 54.2382 439.466 54.0072 440.07C53.7761 440.675 54.0814 441.358 54.6857 441.589L69.9797 447.438C70.584 447.669 71.2675 447.363 71.4986 446.759C71.7297 446.155 71.4243 445.471 70.82 445.24Z" fill="#E0E0FF"/>
</g>
<g clip-path="url(#clip4_521_188)">
<path d="M193.65 804.512L179.055 778.123L175.138 771.041C174.806 770.442 174.045 770.223 173.446 770.554L140.051 789.024L166.435 761.455C166.66 761.217 166.786 760.906 166.783 760.566C166.775 760.243 166.639 759.92 166.401 759.696L160.545 754.099C160.041 753.624 159.267 753.639 158.786 754.133L126.74 787.622C126.516 787.86 126.39 788.171 126.393 788.511C126.401 788.834 126.537 789.157 126.774 789.381L132.486 794.845L136.312 801.764L150.907 828.152C151.239 828.752 152 828.971 152.6 828.639L193.152 806.21C193.762 805.873 193.982 805.111 193.65 804.512ZM176.273 778.239L169.736 781.854L170.652 774.945L173.561 773.336L176.273 778.239ZM160.998 786.687L161.914 779.778L167.939 776.445L167.023 783.355L160.998 786.687ZM152.249 791.526L153.165 784.617L159.19 781.284L158.274 788.194L152.249 791.526ZM143.511 796.359L144.427 789.45L150.452 786.117L149.536 793.027L143.511 796.359ZM137.899 799.463L135.188 794.56L141.725 790.944L140.809 797.854L137.899 799.463ZM138.607 778.824L145.527 779.707L140.768 784.687L133.849 783.804L138.607 778.824ZM145.513 771.604L152.432 772.487L147.674 777.466L140.754 776.584L145.513 771.604ZM152.424 764.395L159.344 765.278L154.585 770.257L147.666 769.375L152.424 764.395ZM163.776 760.635L161.474 763.032L154.555 762.15L159.719 756.747L163.776 760.635ZM131.696 786.034L138.615 786.916L133.45 792.319L129.399 788.442L131.696 786.034ZM190.868 804.628L152.495 825.852L139.105 801.642L177.478 780.418L190.868 804.628Z" fill="#E0E0FF"/>
<path d="M158.605 798.312C158.937 798.911 159.698 799.13 160.298 798.799L175.006 790.664C175.606 790.332 175.825 789.571 175.493 788.971C175.162 788.372 174.4 788.153 173.801 788.484L159.092 796.62C158.493 796.951 158.274 797.713 158.605 798.312Z" fill="#E0E0FF"/>
<path d="M149.097 804.994L156.68 800.8C157.28 800.468 157.499 799.707 157.167 799.107C156.836 798.508 156.074 798.289 155.475 798.62L147.892 802.815C147.293 803.146 147.074 803.908 147.405 804.507C147.736 805.106 148.487 805.331 149.097 804.994Z" fill="#E0E0FF"/>
<path d="M177.339 794.88L151.429 809.21C150.83 809.542 150.611 810.303 150.942 810.902C151.274 811.502 152.035 811.721 152.634 811.389L178.544 797.059C179.143 796.728 179.362 795.966 179.031 795.367C178.699 794.768 177.938 794.549 177.339 794.88Z" fill="#E0E0FF"/>
<path d="M180.876 801.276L173.674 805.259C173.075 805.59 172.856 806.352 173.187 806.951C173.519 807.55 174.28 807.77 174.879 807.438L182.081 803.455C182.68 803.123 182.9 802.362 182.568 801.763C182.237 801.163 181.475 800.944 180.876 801.276Z" fill="#E0E0FF"/>
<path d="M170.133 807.217L154.967 815.606C154.367 815.937 154.148 816.699 154.48 817.298C154.811 817.897 155.573 818.116 156.172 817.785L171.338 809.397C171.938 809.065 172.157 808.304 171.825 807.704C171.494 807.105 170.732 806.886 170.133 807.217Z" fill="#E0E0FF"/>
</g>
<g clip-path="url(#clip5_521_188)">
<path d="M392.698 507.672L371.139 467.625L365.354 456.877C364.864 455.968 363.72 455.625 362.81 456.114L312.131 483.396L352.394 442.272C352.736 441.917 352.932 441.449 352.934 440.936C352.927 440.449 352.728 439.96 352.373 439.617L343.638 431.076C342.885 430.351 341.717 430.361 340.983 431.097L292.081 481.052C291.739 481.407 291.543 481.875 291.542 482.387C291.548 482.874 291.748 483.364 292.103 483.706L300.622 492.044L306.274 502.544L327.832 542.59C328.322 543.5 329.466 543.843 330.376 543.354L391.918 510.224C392.844 509.726 393.187 508.581 392.698 507.672ZM366.942 467.752L357.022 473.092L358.522 462.688L362.937 460.311L366.942 467.752ZM343.761 480.231L345.261 469.826L354.405 464.904L352.905 475.309L343.761 480.231ZM330.483 487.378L331.984 476.974L341.128 472.051L339.627 482.456L330.483 487.378ZM317.223 494.517L318.723 484.112L327.867 479.19L326.366 489.595L317.223 494.517ZM308.707 499.101L304.702 491.66L314.623 486.32L313.122 496.724L308.707 499.101ZM310.129 467.988L320.549 469.438L313.287 476.866L302.867 475.416L310.129 467.988ZM320.667 457.219L331.087 458.668L323.825 466.096L313.405 464.646L320.667 457.219ZM331.214 446.465L341.634 447.915L334.372 455.343L323.952 453.893L331.214 446.465ZM348.398 440.989L344.885 444.565L334.465 443.115L342.346 435.056L348.398 440.989ZM299.582 478.742L310.002 480.192L302.12 488.252L296.077 482.334L299.582 478.742ZM388.501 507.799L330.265 539.148L310.488 502.408L368.723 471.059L388.501 507.799Z" fill="#E0E0FF"/>
<path d="M339.954 497.721C340.443 498.63 341.588 498.974 342.497 498.484L364.819 486.468C365.728 485.978 366.072 484.833 365.582 483.924C365.093 483.015 363.948 482.671 363.039 483.161L340.717 495.177C339.808 495.667 339.464 496.811 339.954 497.721Z" fill="#E0E0FF"/>
<path d="M325.5 507.634L337.008 501.439C337.917 500.95 338.261 499.805 337.771 498.896C337.282 497.986 336.137 497.643 335.228 498.132L323.719 504.327C322.81 504.817 322.466 505.961 322.956 506.871C323.446 507.78 324.574 508.133 325.5 507.634Z" fill="#E0E0FF"/>
<path d="M368.264 492.867L328.944 514.033C328.035 514.523 327.691 515.667 328.181 516.577C328.67 517.486 329.815 517.83 330.724 517.34L370.044 496.174C370.953 495.684 371.297 494.539 370.807 493.63C370.318 492.721 369.173 492.377 368.264 492.867Z" fill="#E0E0FF"/>
<path d="M373.489 502.572L362.559 508.456C361.65 508.946 361.306 510.09 361.796 511C362.285 511.909 363.43 512.252 364.339 511.763L375.269 505.879C376.178 505.39 376.522 504.245 376.032 503.336C375.543 502.426 374.398 502.083 373.489 502.572Z" fill="#E0E0FF"/>
<path d="M357.185 511.349L334.169 523.739C333.26 524.228 332.916 525.373 333.406 526.282C333.895 527.192 335.04 527.535 335.949 527.046L358.966 514.656C359.875 514.166 360.218 513.022 359.729 512.112C359.239 511.203 358.095 510.859 357.185 511.349Z" fill="#E0E0FF"/>
</g>
<path d="M63.0159 725.822C60.0471 725.821 57.7041 723.789 56.9239 721.132L53.6426 721.131C51.9239 721.13 50.5171 722.536 50.5165 724.255L50.5023 761.755C50.5017 763.473 51.9074 764.88 53.6262 764.881L56.9074 764.882C57.5334 762.226 60.0342 760.196 63.0029 760.197C65.9717 760.198 68.3147 762.23 69.0949 764.887L72.3762 764.888C74.0949 764.889 75.5017 763.483 75.5023 761.764L75.5165 724.264C75.5171 722.545 74.1114 721.139 72.3926 721.138L69.1114 721.137C68.3291 723.793 65.9846 725.823 63.0159 725.822Z" stroke="#E0E0FF" stroke-width="2" stroke-miterlimit="10" stroke-linecap="round" stroke-linejoin="round"/>
<path d="M55.0407 743.006L60.0415 740.665L60.8249 735.196L64.5734 739.104L69.8862 738.168L67.3844 743.011L69.8826 747.856L64.5704 746.916L60.819 750.821L60.0398 745.352L55.0407 743.006Z" stroke="#E0E0FF" stroke-width="2" stroke-miterlimit="10" stroke-linecap="round" stroke-linejoin="round"/>
<path d="M347.016 783.822C344.047 783.821 341.704 781.789 340.924 779.132L337.643 779.131C335.924 779.13 334.517 780.536 334.516 782.255L334.502 819.755C334.502 821.473 335.907 822.88 337.626 822.881L340.907 822.882C341.533 820.226 344.034 818.196 347.003 818.197C349.972 818.198 352.315 820.23 353.095 822.887L356.376 822.888C358.095 822.889 359.502 821.483 359.502 819.764L359.516 782.264C359.517 780.545 358.111 779.139 356.393 779.138L353.111 779.137C352.329 781.793 349.985 783.823 347.016 783.822Z" stroke="#E0E0FF" stroke-width="2" stroke-miterlimit="10" stroke-linecap="round" stroke-linejoin="round"/>
<path d="M339.041 801.006L344.042 798.665L344.825 793.196L348.573 797.104L353.886 796.168L351.384 801.011L353.883 805.856L348.57 804.916L344.819 808.821L344.04 803.352L339.041 801.006Z" stroke="#E0E0FF" stroke-width="2" stroke-miterlimit="10" stroke-linecap="round" stroke-linejoin="round"/>
<path d="M382.938 211C382.938 205.656 386.594 201.438 391.375 200.031V194.125C391.375 191.031 388.844 188.5 385.75 188.5H318.25C315.156 188.5 312.625 191.031 312.625 194.125V200.031C317.406 201.156 321.062 205.656 321.062 211C321.062 216.344 317.406 220.562 312.625 221.969V227.875C312.625 230.969 315.156 233.5 318.25 233.5H385.75C388.844 233.5 391.375 230.969 391.375 227.875V221.969C386.594 220.562 382.938 216.344 382.938 211Z" stroke="#E0E0FF" stroke-width="2" stroke-miterlimit="10" stroke-linecap="round" stroke-linejoin="round"/>
<path d="M352 196.656L356.219 205.656L366.062 207.063L359.031 213.813L360.719 223.375L352 218.875L343.281 223.375L344.969 213.813L337.938 207.063L347.781 205.656L352 196.656Z" stroke="#E0E0FF" stroke-width="2" stroke-miterlimit="10" stroke-linecap="round" stroke-linejoin="round"/>
<g clip-path="url(#clip6_521_188)">
<path d="M190.302 360.214L138.72 382.65C135.872 383.89 134.567 387.203 135.806 390.052L148.146 418.422C149.385 421.271 152.699 422.576 155.548 421.337L207.129 398.9C209.978 397.661 211.283 394.347 210.044 391.499L197.704 363.129C196.465 360.28 193.151 358.975 190.302 360.214Z" stroke="#E0E0FF" stroke-width="2" stroke-miterlimit="10"/>
<path d="M222.604 392.169L208.922 388.919L198.826 365.708L205.777 353.483L222.604 392.169Z" stroke="#E0E0FF" stroke-width="2" stroke-linejoin="round"/>
<path d="M154.195 375.919C159.892 373.441 162.502 366.813 160.024 361.116C157.546 355.418 150.918 352.809 145.22 355.287C139.523 357.765 136.913 364.393 139.391 370.09C141.87 375.788 148.497 378.398 154.195 375.919Z" stroke="#E0E0FF" stroke-width="2" stroke-miterlimit="10"/>
<path d="M171.688 366.777C175.249 365.228 176.88 361.086 175.331 357.525C173.782 353.964 169.639 352.333 166.079 353.882C162.518 355.431 160.886 359.573 162.435 363.134C163.984 366.695 168.127 368.326 171.688 366.777Z" stroke="#E0E0FF" stroke-width="2" stroke-miterlimit="10"/>
<path d="M130.648 392.296L135.806 390.052L148.146 418.422L142.988 420.666C142.304 420.963 141.529 420.977 140.835 420.704C140.141 420.43 139.584 419.893 139.287 419.209L129.19 395.997C128.893 395.313 128.879 394.539 129.153 393.844C129.426 393.15 129.964 392.593 130.648 392.296Z" stroke="#E0E0FF" stroke-width="2" stroke-miterlimit="10"/>
<path d="M161.995 418.532L169.733 415.167L177.585 433.22C177.883 433.904 177.897 434.678 177.623 435.373C177.35 436.067 176.812 436.624 176.128 436.921L173.549 438.043C172.865 438.341 172.091 438.354 171.397 438.081C170.703 437.808 170.146 437.27 169.848 436.586L161.995 418.532Z" stroke="#E0E0FF" stroke-width="2" stroke-miterlimit="10"/>
<path d="M159.301 398.235L151.564 401.6C150.139 402.22 149.487 403.877 150.106 405.301L153.472 413.039C154.091 414.463 155.748 415.115 157.173 414.496L164.91 411.13C166.334 410.511 166.987 408.854 166.367 407.429L163.002 399.692C162.382 398.268 160.725 397.615 159.301 398.235Z" stroke="#E0E0FF" stroke-width="2" stroke-miterlimit="10"/>
<path d="M189.38 377.484C191.872 376.4 193.014 373.5 191.93 371.007C190.846 368.515 187.946 367.373 185.453 368.457C182.961 369.541 181.819 372.441 182.903 374.934C183.987 377.426 186.887 378.568 189.38 377.484Z" stroke="#E0E0FF" stroke-width="2" stroke-miterlimit="10"/>
<path d="M148.282 392.293C150.062 391.519 150.878 389.447 150.104 387.667C149.329 385.886 147.258 385.071 145.477 385.845C143.697 386.62 142.881 388.691 143.656 390.472C144.43 392.252 146.502 393.068 148.282 392.293Z" stroke="#E0E0FF" stroke-width="2" stroke-miterlimit="10"/>
<path d="M150.829 368.182C152.254 367.563 152.906 365.906 152.287 364.481C151.667 363.057 150.01 362.404 148.586 363.024C147.161 363.644 146.509 365.301 147.129 366.725C147.748 368.149 149.405 368.802 150.829 368.182Z" stroke="#E0E0FF" stroke-width="2" stroke-miterlimit="10"/>
</g>
<g clip-path="url(#clip7_521_188)">
<path d="M227.048 -19.3109L156.898 7.99791C153.023 9.50613 151.105 13.8695 152.613 17.7438L167.633 56.3263C169.141 60.2006 173.505 62.1187 177.379 60.6104L247.529 33.3017C251.403 31.7934 253.321 27.43 251.813 23.5558L236.793 -15.0267C235.285 -18.901 230.922 -20.8191 227.048 -19.3109Z" stroke="#E0E0FF" stroke-width="2" stroke-miterlimit="10"/>
<path d="M268.574 25.109L250.448 20.0483L238.159 -11.5192L248.093 -27.5035L268.574 25.109Z" stroke="#E0E0FF" stroke-width="2" stroke-linejoin="round"/>
<path d="M177.942 -0.194714C185.691 -3.21116 189.527 -11.9379 186.511 -19.6865C183.494 -27.435 174.768 -31.2712 167.019 -28.2547C159.27 -25.2383 155.434 -16.5115 158.451 -8.76296C161.467 -1.0144 170.194 2.82173 177.942 -0.194714Z" stroke="#E0E0FF" stroke-width="2" stroke-miterlimit="10"/>
<path d="M145.598 20.4747L152.613 17.7438L167.633 56.3263L160.618 59.0572C159.688 59.4193 158.652 59.3971 157.738 58.9954C156.824 58.5937 156.107 57.8454 155.745 56.9151L143.456 25.3476C143.094 24.4174 143.116 23.3814 143.518 22.4675C143.92 21.5537 144.668 20.8368 145.598 20.4747Z" stroke="#E0E0FF" stroke-width="2" stroke-miterlimit="10"/>
<path d="M186.148 57.1968L196.67 53.1005L206.228 77.653C206.591 78.5833 206.568 79.6193 206.167 80.5331C205.765 81.447 205.017 82.1638 204.086 82.526L200.579 83.8914C199.649 84.2535 198.613 84.2313 197.699 83.8296C196.785 83.4279 196.068 82.6796 195.706 81.7493L186.148 57.1968Z" stroke="#E0E0FF" stroke-width="2" stroke-miterlimit="10"/>
<path d="M183.605 29.9135L173.082 34.0098C171.145 34.7639 170.186 36.9456 170.94 38.8827L175.037 49.4052C175.791 51.3424 177.972 52.3014 179.909 51.5473L190.432 47.451C192.369 46.6969 193.328 44.5152 192.574 42.578L188.478 32.0555C187.724 30.1184 185.542 29.1593 183.605 29.9135Z" stroke="#E0E0FF" stroke-width="2" stroke-miterlimit="10"/>
<path d="M224.912 3.73534C228.302 2.41564 229.98 -1.40231 228.66 -4.79231C227.341 -8.1823 223.523 -9.86061 220.133 -8.54092C216.743 -7.22122 215.064 -3.40326 216.384 -0.0132705C217.704 3.37672 221.522 5.05503 224.912 3.73534Z" stroke="#E0E0FF" stroke-width="2" stroke-miterlimit="10"/>
<path d="M169.18 21.3922C171.602 20.4495 172.8 17.7224 171.858 15.301C170.915 12.8796 168.188 11.6808 165.767 12.6234C163.345 13.566 162.146 16.2932 163.089 18.7146C164.032 21.136 166.759 22.3348 169.18 21.3922Z" stroke="#E0E0FF" stroke-width="2" stroke-miterlimit="10"/>
</g>
<g clip-path="url(#clip8_521_188)">
<path d="M19.7362 777.34L-18.9574 792.403C-21.0944 793.235 -22.1524 795.642 -21.3205 797.779L-13.0358 819.061C-12.2039 821.198 -9.79709 822.256 -7.6601 821.424L31.0335 806.361C33.1705 805.529 34.2285 803.122 33.3966 800.985L25.1119 779.703C24.28 777.566 21.8732 776.508 19.7362 777.34Z" stroke="#E0E0FF" stroke-width="2" stroke-miterlimit="10"/>
<path d="M42.6416 801.842L32.6434 799.05L25.8651 781.638L31.3443 772.821L42.6416 801.842Z" stroke="#E0E0FF" stroke-width="2" stroke-linejoin="round"/>
<path d="M-7.34932 787.884C-3.07534 786.221 -0.959387 781.407 -2.62321 777.133C-4.28703 772.859 -9.10057 770.743 -13.3746 772.407C-17.6485 774.071 -19.7645 778.884 -18.1007 783.158C-16.4368 787.432 -11.6233 789.548 -7.34932 787.884Z" stroke="#E0E0FF" stroke-width="2" stroke-miterlimit="10"/>
<path d="M5.81683 781.645C8.48807 780.605 9.81054 777.597 8.77065 774.925C7.73076 772.254 4.7223 770.932 2.05106 771.972C-0.620178 773.012 -1.94265 776.02 -0.902758 778.691C0.137131 781.362 3.14559 782.685 5.81683 781.645Z" stroke="#E0E0FF" stroke-width="2" stroke-miterlimit="10"/>
<path d="M-4.22612 804.492L-10.0302 806.751C-11.0987 807.167 -11.6276 808.37 -11.2117 809.439L-8.95223 815.243C-8.53627 816.311 -7.33288 816.84 -6.26439 816.425L-0.460343 814.165C0.608152 813.749 1.13714 812.546 0.721184 811.477L-1.53828 805.673C-1.95424 804.605 -3.15762 804.076 -4.22612 804.492Z" stroke="#E0E0FF" stroke-width="2" stroke-miterlimit="10"/>
<path d="M18.5582 790.052C20.4281 789.324 21.3538 787.218 20.6259 785.349C19.898 783.479 17.7921 782.553 15.9222 783.281C14.0523 784.009 13.1266 786.115 13.8545 787.985C14.5824 789.854 16.6884 790.78 18.5582 790.052Z" stroke="#E0E0FF" stroke-width="2" stroke-miterlimit="10"/>
</g>
<g clip-path="url(#clip9_521_188)">
<mask id="mask0_521_188" style="mask-type:luminance" maskUnits="userSpaceOnUse" x="-38" y="195" width="136" height="136">
<path d="M97.1241 252.243L19.2429 195.587L-37.4127 273.468L40.4684 330.124L97.1241 252.243Z" fill="white"/>
</mask>
<g mask="url(#mask0_521_188)">
<path d="M13.1264 231.779C13.1098 231.716 13.0995 231.651 13.0958 231.585C13.1065 231.639 13.1215 231.692 13.1407 231.744L13.1264 231.779Z" fill="#E0E0FF"/>
<path d="M74.0036 255.91C73.3583 254.41 72.3438 253.097 71.0547 252.093C72.2174 250.539 72.9566 248.709 73.2 246.783C73.4833 244.34 72.9841 241.869 71.7743 239.728C70.5644 237.586 68.7063 235.884 66.4673 234.865C65.2058 234.336 63.8537 234.056 62.4858 234.042C62.7446 231.921 62.3865 229.77 61.4544 227.848C60.5223 225.925 59.0557 224.312 57.2303 223.202C55.4049 222.091 53.2981 221.531 51.1622 221.587C49.0264 221.643 46.952 222.314 45.1877 223.519C43.8951 222.467 42.4 221.691 40.7951 221.241C39.1902 220.79 37.5099 220.675 35.8584 220.901C34.2105 221.157 32.6413 221.781 31.2673 222.726C30.3449 221.176 29.0278 219.899 27.4504 219.025C25.873 218.151 24.0918 217.712 22.289 217.752C17.3746 217.99 14.6684 222.182 14.1768 223.016C12.6965 225.614 12.3052 228.693 13.0884 231.58C13.0991 231.634 13.1141 231.687 13.1333 231.738L5.34282 245.218L-15.4722 281.23C-16.3911 282.821 -16.686 284.697 -16.2997 286.493C-15.9134 288.289 -14.8735 289.877 -13.3819 290.95L16.4526 312.653C17.9323 313.742 19.7638 314.243 21.5916 314.057C23.4195 313.872 25.1132 313.014 26.344 311.65L35.5747 301.416L32.6937 299.08L23.5406 309.175C22.9252 309.857 22.0783 310.286 21.1644 310.379C20.2505 310.472 19.3347 310.222 18.5949 309.677L13.8022 306.191L40.507 271.795L40.5288 271.765L49.1741 260.636C50.7533 261.23 52.3913 261.654 54.0604 261.901C56.1029 262.241 58.0963 262.649 59.3694 263.576C60.406 264.426 61.2562 265.481 61.867 266.675L51.3949 278.284L40.088 290.82L42.9635 293.164L54.1465 280.767L64.8774 268.865C66.406 268.991 67.942 268.737 69.3491 268.126C70.7561 267.516 71.9907 266.567 72.9431 265.365C76.134 261.262 74.2337 256.444 74.0036 255.91ZM-11.2178 287.944C-11.9636 287.407 -12.4836 286.613 -12.6767 285.715C-12.8699 284.817 -12.7224 283.879 -12.263 283.084L8.55207 247.072L16.3664 233.575C17.6908 233.773 18.9604 234.24 20.0966 234.949C21.3921 235.891 22.3307 237.639 23.3245 239.484C24.0729 240.996 24.9804 242.424 26.0317 243.744L18.9878 254.182L18.9497 254.235C18.9115 254.287 18.8788 254.332 18.8407 254.385L-2.40199 285.585L-2.43468 285.63C-2.47282 285.682 -2.5055 285.727 -2.54364 285.78L-6.42446 291.476L-11.2178 287.944ZM37.581 269.552L37.5483 269.597L10.8435 303.992L-3.4297 293.609L0.590716 287.705L0.623401 287.66L21.9778 256.369L22.0105 256.324L28.9631 246.105C30.7133 246.87 32.562 247.386 34.4553 247.639C36.4978 247.979 38.4912 248.387 39.7643 249.314C41.0373 250.24 41.9985 252.004 42.9923 253.849C43.8152 255.573 44.8754 257.173 46.1419 258.602L37.581 269.552ZM65.2332 265.196C64.3588 263.413 63.1065 261.841 61.5634 260.591C59.5864 259.153 57.1218 258.7 54.7464 258.266C52.7039 257.925 50.7105 257.517 49.4449 256.596C48.1794 255.676 47.2107 253.906 46.2169 252.061C45.0727 249.935 43.8829 247.729 41.9059 246.291C39.9289 244.853 37.4643 244.4 35.0889 243.966C33.0464 243.625 31.053 243.217 29.7799 242.291C28.5069 241.365 27.5532 239.606 26.5594 237.761C25.4077 235.629 24.2254 233.429 22.2484 231.991C20.5152 230.867 18.5531 230.144 16.5051 229.874C16.2036 228.164 16.5122 226.403 17.3772 224.897C17.6952 224.35 19.463 221.605 22.4744 221.448C23.7327 221.452 24.9639 221.815 26.024 222.492C27.0841 223.17 27.9294 224.136 28.4612 225.276C27.8178 226.034 27.2544 226.856 26.7799 227.729C26.569 228.126 26.5096 228.586 26.6127 229.024C26.7159 229.461 26.9746 229.846 27.3406 230.107L27.5653 230.27C27.7849 230.389 28.0262 230.461 28.2746 230.484C28.523 230.507 28.7734 230.479 29.0108 230.402C29.2483 230.326 29.4678 230.202 29.6563 230.039C29.8447 229.876 29.9983 229.676 30.1076 229.452C30.331 229.019 32.4128 225.197 36.438 224.575C40.4632 223.953 44.5139 226.602 46.2114 230.849C46.3925 231.305 46.7475 231.671 47.1985 231.866C47.6494 232.061 48.1593 232.069 48.616 231.888C49.0727 231.707 49.4387 231.352 49.6336 230.901C49.8285 230.45 49.8363 229.94 49.6553 229.483C49.2025 228.341 48.6 227.263 47.8637 226.279C48.9318 225.718 50.1173 225.416 51.3239 225.398C52.5305 225.381 53.7242 225.648 54.8083 226.178C56.3975 227.087 57.6259 228.515 58.2875 230.222C58.9491 231.929 59.0037 233.812 58.4421 235.555C58.3528 235.861 58.3443 236.186 58.4173 236.496C58.4903 236.807 58.6425 237.094 58.8589 237.329C59.0754 237.563 59.3488 237.738 59.6527 237.836C59.9566 237.934 60.2806 237.951 60.5933 237.887C62.0712 237.561 63.6131 237.693 65.0146 238.263C66.5201 238.966 67.7681 240.122 68.5837 241.57C69.3993 243.018 69.7417 244.684 69.563 246.336C69.293 248.192 68.3852 249.896 66.9956 251.156C66.7723 251.363 66.6034 251.621 66.5037 251.908C66.404 252.196 66.3767 252.503 66.4241 252.804C66.4715 253.104 66.5922 253.389 66.7755 253.631C66.9589 253.874 67.1992 254.068 67.4753 254.196C68.8639 254.841 69.9733 255.965 70.5999 257.362C70.6537 257.493 71.9442 260.63 70.0042 263.124C69.4383 263.833 68.7077 264.392 67.8761 264.753C67.0445 265.114 66.1372 265.266 65.2332 265.196Z" fill="#E0E0FF"/>
<path d="M39.185 297.253C39.8303 296.459 39.71 295.293 38.9164 294.647C38.1227 294.002 36.9562 294.122 36.3109 294.916C35.6656 295.71 35.7859 296.876 36.5795 297.521C37.3732 298.167 38.5397 298.046 39.185 297.253Z" fill="#E0E0FF"/>
</g>
</g>
<g clip-path="url(#clip10_521_188)">
<mask id="mask1_521_188" style="mask-type:luminance" maskUnits="userSpaceOnUse" x="285" y="263" width="99" height="99">
<path d="M360.205 263.884L285.885 287.558L309.558 361.879L383.879 338.205L360.205 263.884Z" fill="white"/>
</mask>
<g mask="url(#mask1_521_188)">
<path d="M306.576 308.902C306.527 308.883 306.479 308.858 306.435 308.829C306.475 308.848 306.517 308.864 306.56 308.876L306.576 308.902Z" fill="#E0E0FF"/>
<path d="M351.514 280.735C350.225 280.436 348.882 280.469 347.609 280.829C347.152 279.325 346.312 277.965 345.171 276.883C343.712 275.527 341.86 274.668 339.882 274.431C337.904 274.194 335.902 274.591 334.164 275.564C333.214 276.134 332.383 276.882 331.718 277.768C330.457 276.582 328.882 275.785 327.18 275.472C325.478 275.158 323.722 275.342 322.122 276.001C320.522 276.661 319.146 277.767 318.159 279.188C317.172 280.609 316.615 282.285 316.556 284.015C315.249 284.354 314.026 284.958 312.962 285.789C311.899 286.621 311.018 287.662 310.374 288.849C309.751 290.047 309.406 291.37 309.364 292.72C307.91 292.58 306.445 292.827 305.118 293.438C303.792 294.048 302.651 295 301.813 296.196C299.612 299.518 301.051 303.295 301.359 304.015C302.346 306.227 304.168 307.959 306.428 308.832C306.468 308.851 306.51 308.866 306.553 308.878L311.617 320.426L325.144 351.278C325.741 352.641 326.824 353.733 328.182 354.342C329.54 354.951 331.075 355.034 332.49 354.574L360.961 345.505C362.381 345.062 363.586 344.106 364.341 342.824C365.096 341.542 365.348 340.025 365.048 338.568L362.794 327.636L359.888 328.396L362.089 339.211C362.239 339.94 362.113 340.698 361.735 341.339C361.358 341.98 360.755 342.458 360.045 342.68L355.472 344.137L345.823 310.215L345.814 310.186L342.695 299.208C343.84 298.462 344.902 297.596 345.863 296.624C347.065 295.454 348.287 294.349 349.501 293.962C350.554 293.693 351.65 293.644 352.722 293.818L355.279 306.219L358.041 319.61L360.95 318.857L358.219 305.613L355.595 292.903C356.41 291.965 356.981 290.841 357.257 289.63C357.533 288.418 357.505 287.158 357.177 285.96C356.029 281.91 351.973 280.84 351.514 280.735ZM331.566 351.72C330.858 351.95 330.09 351.908 329.411 351.604C328.733 351.299 328.191 350.754 327.892 350.072L314.365 319.22L309.302 307.649C310.066 306.879 310.979 306.274 311.987 305.872C313.223 305.478 314.814 305.704 316.495 305.94C317.841 306.176 319.208 306.268 320.573 306.215L324.01 315.817L324.026 315.867C324.042 315.917 324.055 315.96 324.071 316.01L334.253 344.835L334.266 344.878C334.282 344.928 334.296 344.971 334.312 345.021L336.17 350.285L331.566 351.72ZM342.956 311.049L342.97 311.092L352.618 345.014L338.998 349.353L337.071 343.898L337.057 343.855L326.871 314.914L326.857 314.871L323.52 305.434C324.859 304.658 326.082 303.699 327.154 302.584C328.356 301.414 329.578 300.308 330.793 299.921C332.008 299.534 333.62 299.753 335.301 299.989C336.82 300.278 338.373 300.353 339.914 300.212L342.956 311.049ZM353.371 290.911C351.787 290.627 350.161 290.691 348.605 291.099C346.719 291.7 345.241 293.091 343.819 294.434C342.618 295.604 341.395 296.709 340.188 297.094C338.98 297.479 337.361 297.263 335.68 297.027C333.743 296.754 331.733 296.473 329.846 297.074C327.96 297.675 326.482 299.067 325.06 300.409C323.859 301.579 322.637 302.685 321.422 303.072C320.207 303.459 318.602 303.238 316.921 303.002C314.977 302.732 312.974 302.449 311.088 303.05C309.523 303.642 308.11 304.576 306.952 305.784C305.692 305.161 304.69 304.115 304.122 302.828C303.917 302.358 302.973 299.888 304.314 297.847C304.92 297.028 305.747 296.398 306.698 296.031C307.649 295.664 308.684 295.575 309.684 295.775C309.87 296.558 310.136 297.32 310.479 298.048C310.636 298.376 310.908 298.636 311.243 298.778C311.578 298.921 311.954 298.936 312.299 298.822L312.514 298.754C312.696 298.667 312.859 298.545 312.993 298.393C313.127 298.242 313.229 298.065 313.293 297.874C313.357 297.682 313.381 297.48 313.365 297.278C313.349 297.077 313.292 296.881 313.198 296.702C313.023 296.349 311.526 293.157 313.05 290.232C314.574 287.306 318.245 285.932 321.831 286.86C322.216 286.961 322.625 286.905 322.968 286.704C323.312 286.503 323.561 286.174 323.662 285.789C323.763 285.404 323.707 284.995 323.506 284.651C323.305 284.308 322.976 284.058 322.591 283.958C321.628 283.705 320.636 283.582 319.64 283.591C319.786 282.624 320.157 281.706 320.724 280.91C321.291 280.114 322.038 279.463 322.904 279.009C324.259 278.408 325.78 278.291 327.212 278.677C328.643 279.064 329.898 279.931 330.767 281.133C330.924 281.338 331.131 281.499 331.369 281.601C331.607 281.702 331.867 281.74 332.124 281.711C332.381 281.683 332.626 281.588 332.836 281.436C333.045 281.285 333.212 281.082 333.32 280.847C333.816 279.726 334.641 278.783 335.686 278.141C336.866 277.496 338.219 277.235 339.555 277.397C340.891 277.559 342.143 278.134 343.136 279.043C344.218 280.109 344.895 281.518 345.051 283.03C345.079 283.274 345.166 283.509 345.306 283.711C345.446 283.914 345.634 284.08 345.853 284.193C346.072 284.306 346.315 284.363 346.561 284.36C346.808 284.357 347.049 284.293 347.265 284.174C348.352 283.577 349.618 283.392 350.83 283.652C350.941 283.68 353.608 284.342 354.306 286.804C354.497 287.513 354.511 288.258 354.348 288.974C354.185 289.69 353.85 290.355 353.371 290.911Z" fill="#E0E0FF"/>
<path d="M361.807 323.283C361.598 322.482 360.779 322.001 359.978 322.209C359.176 322.418 358.695 323.237 358.904 324.039C359.112 324.841 359.931 325.321 360.733 325.113C361.535 324.904 362.016 324.085 361.807 323.283Z" fill="#E0E0FF"/>
</g>
</g>
<g clip-path="url(#clip11_521_188)">
<mask id="mask2_521_188" style="mask-type:luminance" maskUnits="userSpaceOnUse" x="283" y="600" width="122" height="122">
<path d="M373.424 600.332L283.332 631.507L314.506 721.599L404.599 690.424L373.424 600.332Z" fill="white"/>
</mask>
<g mask="url(#mask2_521_188)">
<path d="M309.26 656.96C309.199 656.937 309.14 656.909 309.085 656.875C309.135 656.897 309.187 656.915 309.239 656.928L309.26 656.96Z" fill="#E0E0FF"/>
<path d="M363.315 621.183C361.731 620.858 360.091 620.938 358.546 621.417C357.942 619.593 356.874 617.957 355.448 616.669C353.624 615.056 351.336 614.063 348.912 613.834C346.488 613.604 344.054 614.149 341.959 615.391C340.816 616.116 339.823 617.055 339.037 618.158C337.461 616.747 335.512 615.821 333.423 615.489C331.334 615.158 329.194 615.436 327.259 616.29C325.324 617.143 323.676 618.537 322.513 620.303C321.35 622.07 320.721 624.134 320.7 626.249C319.114 626.702 317.638 627.478 316.364 628.526C315.089 629.574 314.044 630.873 313.293 632.342C312.569 633.826 312.187 635.453 312.176 637.104C310.396 636.975 308.613 637.322 307.011 638.109C305.408 638.895 304.043 640.092 303.055 641.579C300.467 645.705 302.339 650.275 302.738 651.146C304.01 653.819 306.289 655.88 309.076 656.878C309.126 656.9 309.178 656.918 309.231 656.931L315.767 670.888L333.229 708.175C334.001 709.822 335.357 711.123 337.034 711.826C338.711 712.529 340.59 712.584 342.305 711.98L376.817 700.037C378.539 699.452 379.982 698.248 380.866 696.659C381.75 695.069 382.012 693.208 381.601 691.437L378.516 678.148L374.988 679.165L378.005 692.313C378.21 693.198 378.079 694.129 377.637 694.924C377.195 695.718 376.474 696.32 375.613 696.613L370.069 698.531L357.254 657.376L357.242 657.341L353.098 644.021C354.475 643.075 355.746 641.985 356.891 640.769C358.324 639.303 359.783 637.916 361.256 637.406C362.534 637.046 363.872 636.952 365.187 637.132L368.686 652.207L372.466 668.486L375.997 667.477L372.26 651.378L368.669 635.927C369.637 634.757 370.3 633.366 370.601 631.878C370.901 630.39 370.83 628.85 370.393 627.396C368.867 622.483 363.879 621.299 363.315 621.183ZM341.089 708.52C340.231 708.823 339.292 708.795 338.453 708.444C337.615 708.092 336.936 707.442 336.551 706.618L319.089 669.331L312.552 655.345C313.462 654.382 314.561 653.615 315.779 653.094C317.278 652.575 319.228 652.802 321.289 653.04C322.941 653.288 324.614 653.359 326.281 653.253L330.77 664.881L330.791 664.942C330.812 665.003 330.83 665.055 330.851 665.115L344.164 700.026L344.181 700.078C344.202 700.139 344.22 700.191 344.241 700.252L346.671 706.628L341.089 708.52ZM353.776 658.482L353.794 658.534L366.609 699.69L350.098 705.403L347.579 698.796L347.561 698.744L334.239 663.691L334.221 663.639L329.858 652.209C331.47 651.22 332.935 650.011 334.212 648.617C335.645 647.151 337.104 645.763 338.577 645.254C340.05 644.744 342.026 644.962 344.087 645.2C345.953 645.507 347.852 645.552 349.73 645.332L353.776 658.482ZM365.891 633.561C363.948 633.262 361.963 633.39 360.074 633.935C357.787 634.726 356.024 636.471 354.327 638.155C352.895 639.62 351.435 641.008 349.971 641.515C348.507 642.021 346.522 641.806 344.461 641.569C342.086 641.294 339.622 641.012 337.335 641.803C335.048 642.595 333.285 644.34 331.588 646.023C330.155 647.489 328.695 648.877 327.223 649.386C325.75 649.896 323.782 649.675 321.721 649.437C319.338 649.166 316.882 648.881 314.595 649.672C312.701 650.443 311.004 651.627 309.625 653.138C308.066 652.415 306.81 651.167 306.077 649.612C305.813 649.044 304.585 646.055 306.162 643.521C306.877 642.501 307.868 641.707 309.019 641.229C310.17 640.752 311.432 640.612 312.659 640.826C312.91 641.777 313.259 642.7 313.7 643.58C313.902 643.976 314.242 644.284 314.656 644.448C315.07 644.612 315.529 644.62 315.948 644.47L316.208 644.38C316.428 644.269 316.623 644.114 316.783 643.925C316.942 643.736 317.061 643.517 317.133 643.281C317.205 643.045 317.229 642.797 317.203 642.551C317.177 642.306 317.102 642.068 316.982 641.852C316.757 641.426 314.831 637.572 316.605 633.951C318.378 630.331 322.822 628.541 327.232 629.566C327.705 629.678 328.203 629.596 328.617 629.341C329.03 629.085 329.325 628.675 329.437 628.202C329.548 627.728 329.467 627.23 329.211 626.817C328.955 626.403 328.546 626.108 328.072 625.997C326.888 625.717 325.672 625.597 324.456 625.638C324.605 624.452 325.031 623.319 325.7 622.329C326.368 621.339 327.261 620.521 328.305 619.941C329.943 619.165 331.798 618.976 333.559 619.405C335.319 619.834 336.879 620.855 337.977 622.298C338.175 622.544 338.434 622.734 338.727 622.851C339.021 622.968 339.34 623.006 339.653 622.963C339.966 622.92 340.263 622.797 340.514 622.606C340.766 622.415 340.963 622.161 341.088 621.871C341.66 620.487 342.64 619.309 343.896 618.494C345.319 617.669 346.965 617.31 348.602 617.467C350.239 617.624 351.786 618.29 353.026 619.37C354.381 620.64 355.251 622.341 355.487 624.183C355.529 624.481 355.643 624.765 355.82 625.008C355.997 625.252 356.231 625.448 356.502 625.58C356.773 625.711 357.072 625.774 357.373 625.763C357.674 625.751 357.967 625.666 358.228 625.514C359.537 624.752 361.078 624.487 362.567 624.769C362.704 624.799 365.982 625.527 366.909 628.514C367.164 629.375 367.205 630.285 367.027 631.164C366.85 632.044 366.46 632.867 365.891 633.561Z" fill="#E0E0FF"/>
<path d="M377.179 672.86C376.9 671.887 375.884 671.324 374.911 671.603C373.938 671.882 373.375 672.898 373.654 673.871C373.933 674.844 374.949 675.407 375.922 675.128C376.895 674.848 377.458 673.833 377.179 672.86Z" fill="#E0E0FF"/>
</g>
</g>
<g clip-path="url(#clip12_521_188)">
<mask id="mask3_521_188" style="mask-type:luminance" maskUnits="userSpaceOnUse" x="24" y="462" width="118" height="118">
<path d="M94.441 462.263L24.2629 509.761L71.7607 579.939L141.939 532.441L94.441 462.263Z" fill="white"/>
</mask>
<g mask="url(#mask3_521_188)">
<path d="M52.3815 525.648C52.324 525.643 52.2671 525.632 52.2118 525.615C52.2597 525.623 52.3081 525.626 52.3565 525.626L52.3815 525.648Z" fill="#E0E0FF"/>
<path d="M90.5597 482.492C89.1249 482.577 87.7349 483.024 86.519 483.79C85.5804 482.363 84.2874 481.204 82.7665 480.426C80.8295 479.461 78.6361 479.135 76.5021 479.496C74.3681 479.856 72.4035 480.885 70.891 482.433C70.0757 483.318 69.4398 484.353 69.0185 485.481C67.3409 484.632 65.4543 484.285 63.5846 484.482C61.7149 484.678 59.9414 485.409 58.4765 486.587C57.0116 487.766 55.9175 489.341 55.3252 491.125C54.7329 492.91 54.6675 494.827 55.1369 496.647C53.8793 497.402 52.7903 498.407 51.9375 499.6C51.0847 500.794 50.4864 502.15 50.1797 503.584C49.8986 505.024 49.9453 506.509 50.3163 507.929C48.7581 508.228 47.3075 508.936 46.1125 509.98C44.9175 511.024 44.0211 512.367 43.5147 513.87C42.242 518.008 44.9015 521.501 45.4439 522.158C47.1516 524.16 49.5824 525.405 52.2051 525.62C52.2529 525.627 52.3013 525.631 52.3498 525.63L61.1736 536.109L84.7463 564.105C85.7879 565.341 87.2517 566.146 88.8536 566.364C90.4554 566.582 92.0809 566.196 93.4146 565.283L120.298 547.088C121.642 546.189 122.604 544.823 122.997 543.255C123.39 541.687 123.187 540.029 122.426 538.603L116.72 527.903L113.925 529.588L119.54 540.182C119.921 540.895 120.022 541.724 119.826 542.508C119.629 543.292 119.148 543.975 118.476 544.425L114.158 547.348L93.6841 514.961L93.6658 514.934L87.0432 504.451C88.007 503.322 88.8477 502.094 89.5509 500.786C90.4438 499.198 91.3778 497.671 92.5249 496.894C93.5389 496.291 94.6663 495.903 95.8368 495.755L102.311 507.893L109.302 520.999L112.102 519.321L105.188 506.358L98.5495 493.919C99.1107 492.691 99.3603 491.344 99.2759 489.998C99.1916 488.651 98.776 487.345 98.0661 486.198C95.6254 482.33 91.0703 482.461 90.5597 482.492ZM91.5743 562.593C90.9075 563.05 90.0947 563.242 89.2938 563.134C88.4929 563.025 87.7609 562.622 87.2401 562.004L63.6674 534.008L54.8367 523.504C55.3962 522.467 56.1629 521.557 57.0892 520.829C58.2566 520.039 59.9837 519.785 61.8078 519.514C63.2829 519.347 64.736 519.023 66.1424 518.548L72.673 527.499L72.7049 527.547C72.7369 527.594 72.7643 527.634 72.7963 527.682L92.2596 554.592L92.287 554.633C92.319 554.68 92.3464 554.721 92.3784 554.768L95.9315 559.683L91.5743 562.593ZM90.9528 516.711L90.9802 516.752L111.454 549.138L98.5921 557.843L94.9089 552.75L94.8815 552.71L75.3767 525.679L75.3493 525.639L68.9734 516.829C70.1298 515.61 71.1099 514.234 71.885 512.743C72.7778 511.155 73.7118 509.627 74.859 508.851C76.0061 508.074 77.7534 507.807 79.5776 507.536C81.25 507.371 82.8911 506.972 84.453 506.352L90.9528 516.711ZM95.6199 492.527C93.8827 492.717 92.2078 493.283 90.7116 494.186C88.9301 495.392 87.818 497.296 86.7483 499.131C85.8555 500.72 84.9215 502.247 83.7811 503.019C82.6407 503.791 80.8866 504.063 79.0625 504.333C76.9607 504.644 74.7798 504.969 72.9984 506.175C71.2169 507.38 70.1048 509.284 69.0351 511.12C68.1423 512.708 67.2083 514.236 66.0612 515.012C64.914 515.788 63.1734 516.051 61.3493 516.322C59.2407 516.637 57.0666 516.957 55.2852 518.163C53.8367 519.261 52.6515 520.668 51.8156 522.282C50.3105 522.02 48.9453 521.238 47.9582 520.072C47.6004 519.645 45.8579 517.361 46.6288 514.823C47.0088 513.783 47.6768 512.872 48.5549 512.198C49.433 511.523 50.4848 511.113 51.5876 511.014C52.022 511.773 52.5336 512.485 53.1144 513.139C53.3797 513.432 53.7426 513.619 54.1354 513.664C54.5282 513.71 54.9242 513.611 55.2495 513.386L55.4519 513.249C55.6155 513.103 55.7477 512.925 55.8408 512.726C55.9339 512.527 55.9859 512.312 55.9936 512.092C56.0014 511.873 55.9648 511.654 55.8859 511.449C55.8071 511.245 55.6877 511.058 55.5349 510.9C55.2435 510.586 52.7036 507.72 53.3931 504.203C54.0827 500.686 57.4863 498.127 61.5081 497.993C61.9401 497.979 62.3493 497.795 62.6454 497.48C62.9416 497.165 63.1006 496.746 63.0873 496.314C63.0741 495.882 62.8898 495.473 62.575 495.176C62.2601 494.88 61.8405 494.721 61.4085 494.734C60.3275 494.767 59.2557 494.944 58.2211 495.258C58.076 494.207 58.1808 493.135 58.5272 492.132C58.8736 491.128 59.4517 490.22 60.2146 489.482C61.4424 488.439 62.9914 487.849 64.6019 487.812C66.2125 487.776 67.7868 488.294 69.0609 489.28C69.2878 489.445 69.5537 489.549 69.8327 489.582C70.1117 489.614 70.3944 489.574 70.6533 489.465C70.9122 489.356 71.1386 489.182 71.3105 488.96C71.4823 488.738 71.5938 488.475 71.6342 488.197C71.8068 486.877 72.3766 485.64 73.2682 484.651C74.3002 483.616 75.6302 482.929 77.072 482.687C78.5139 482.445 79.9952 482.66 81.3087 483.302C82.7638 484.081 83.9024 485.342 84.5292 486.869C84.6334 487.115 84.7967 487.332 85.0047 487.501C85.2127 487.669 85.459 487.784 85.7219 487.834C85.9847 487.885 86.256 487.87 86.5118 487.791C86.7675 487.712 86.9998 487.571 87.1882 487.381C88.1373 486.425 89.3994 485.843 90.7429 485.743C90.8672 485.737 93.8494 485.608 95.3326 487.959C95.7495 488.639 95.9936 489.411 96.0437 490.207C96.0938 491.003 95.9483 491.8 95.6199 492.527Z" fill="#E0E0FF"/>
<path d="M114.354 523.67C113.891 522.899 112.89 522.649 112.118 523.113C111.347 523.577 111.097 524.578 111.561 525.349C112.025 526.121 113.026 526.37 113.797 525.907C114.569 525.443 114.818 524.442 114.354 523.67Z" fill="#E0E0FF"/>
</g>
</g>
<g clip-path="url(#clip13_521_188)">
<path d="M282.387 144.42L260.206 157.226C258.19 158.39 255.737 158.798 253.603 158.014C248.832 156.735 244.043 159.5 243.017 164.126C242.378 166.511 241.05 168.286 239.034 169.45L216.853 182.256C214.08 183.857 210.502 182.898 208.901 180.126L194.931 155.929C193.767 153.912 194.406 151.527 196.423 150.362L264.729 110.926C266.746 109.761 269.131 110.401 270.295 112.417L284.265 136.614C286.118 139.241 285.159 142.819 282.387 144.42Z" stroke="#E0E0FF" stroke-width="2" stroke-miterlimit="10" stroke-linecap="round" stroke-linejoin="round"/>
<path d="M228.961 145.019L208.797 156.661L216.073 169.264L236.237 157.622L228.961 145.019Z" stroke="#E0E0FF" stroke-width="2" stroke-miterlimit="10" stroke-linecap="round" stroke-linejoin="round"/>
<path d="M264.249 124.646L244.084 136.288L251.361 148.89L271.525 137.249L264.249 124.646Z" stroke="#E0E0FF" stroke-width="2" stroke-miterlimit="10" stroke-linecap="round" stroke-linejoin="round"/>
<path d="M194.349 154.92L194.575 132.609C194.795 125.424 198.701 118.801 205.002 115.163L209.368 122.724C205.083 125.198 203.194 130.658 205.164 135.234L208.521 143.377" stroke="#E0E0FF" stroke-width="2" stroke-miterlimit="10" stroke-linecap="round" stroke-linejoin="round"/>
<path d="M269.965 111.263L250.531 100.303C244.198 96.9018 236.509 96.9721 230.207 100.61L234.573 108.172C238.858 105.698 244.531 106.792 247.509 110.786L252.883 117.765" stroke="#E0E0FF" stroke-width="2" stroke-miterlimit="10" stroke-linecap="round" stroke-linejoin="round"/>
</g>
<g clip-path="url(#clip14_521_188)">
<path d="M313.609 397.438L298.093 405.741C296.682 406.496 294.989 406.722 293.541 406.136C290.293 405.152 286.943 406.945 286.136 410.099C285.644 411.723 284.693 412.912 283.282 413.667L267.766 421.97C265.826 423.008 263.39 422.27 262.352 420.331L253.294 403.404C252.539 401.993 253.031 400.369 254.441 399.614L302.225 374.044C303.636 373.289 305.26 373.781 306.014 375.192L315.073 392.119C316.287 393.964 315.549 396.4 313.609 397.438Z" stroke="#E0E0FF" stroke-width="2" stroke-miterlimit="10" stroke-linecap="round" stroke-linejoin="round"/>
<path d="M276.906 396.666L262.8 404.214L267.518 413.03L281.624 405.482L276.906 396.666Z" stroke="#E0E0FF" stroke-width="2" stroke-miterlimit="10" stroke-linecap="round" stroke-linejoin="round"/>
<path d="M301.591 383.456L287.485 391.004L292.203 399.82L306.309 392.272L301.591 383.456Z" stroke="#E0E0FF" stroke-width="2" stroke-miterlimit="10" stroke-linecap="round" stroke-linejoin="round"/>
<path d="M252.916 402.699L253.566 387.381C253.876 382.452 256.705 377.99 261.113 375.631L263.944 380.92C260.946 382.524 259.528 386.232 260.78 389.418L262.905 395.085" stroke="#E0E0FF" stroke-width="2" stroke-miterlimit="10" stroke-linecap="round" stroke-linejoin="round"/>
<path d="M305.813 374.392L292.709 366.435C288.436 363.958 283.154 363.836 278.746 366.195L281.576 371.485C284.574 369.881 288.445 370.758 290.402 373.567L293.938 378.479" stroke="#E0E0FF" stroke-width="2" stroke-miterlimit="10" stroke-linecap="round" stroke-linejoin="round"/>
</g>
<g clip-path="url(#clip15_521_188)">
<path d="M34.6095 380.438L19.0931 388.741C17.6825 389.496 15.9888 389.722 14.5411 389.136C11.293 388.152 7.94282 389.945 7.13552 393.099C6.64371 394.723 5.69252 395.912 4.28193 396.667L-11.2345 404.97C-13.174 406.008 -15.6101 405.27 -16.6481 403.331L-25.7061 386.404C-26.461 384.993 -25.9692 383.369 -24.5586 382.614L23.225 357.044C24.6356 356.289 26.2596 356.781 27.0145 358.192L36.0725 375.119C37.2868 376.964 36.5491 379.4 34.6095 380.438Z" stroke="#E0E0FF" stroke-width="2" stroke-miterlimit="10" stroke-linecap="round" stroke-linejoin="round"/>
<path d="M-2.09411 379.666L-16.2 387.214L-11.4822 396.03L2.62364 388.482L-2.09411 379.666Z" stroke="#E0E0FF" stroke-width="2" stroke-miterlimit="10" stroke-linecap="round" stroke-linejoin="round"/>
<path d="M22.5911 366.456L8.48523 374.004L13.203 382.82L27.3088 375.272L22.5911 366.456Z" stroke="#E0E0FF" stroke-width="2" stroke-miterlimit="10" stroke-linecap="round" stroke-linejoin="round"/>
<path d="M26.8134 357.392L13.7094 349.435C9.43573 346.958 4.15368 346.836 -0.254395 349.195L2.57625 354.485C5.57375 352.881 9.44521 353.758 11.4019 356.567L14.9378 361.479" stroke="#E0E0FF" stroke-width="2" stroke-miterlimit="10" stroke-linecap="round" stroke-linejoin="round"/>
</g>
<g clip-path="url(#clip16_521_188)">
<path d="M143.907 322.132L130.202 339.974C128.956 341.596 127.102 342.751 125.107 342.83C120.805 343.394 117.846 347.246 118.565 351.346C118.848 353.496 118.366 355.383 117.12 357.005L103.415 374.847C101.702 377.077 98.4752 377.5 96.245 375.787L76.7809 360.836C75.1589 359.59 74.8769 357.439 76.1228 355.817L118.328 300.872C119.574 299.25 121.725 298.968 123.347 300.214L142.811 315.165C145.197 316.675 145.62 319.902 143.907 322.132Z" stroke="#E0E0FF" stroke-width="2" stroke-miterlimit="10" stroke-linecap="round" stroke-linejoin="round"/>
<path d="M100.741 340.555L88.282 356.775L98.4195 364.562L110.879 348.342L100.741 340.555Z" stroke="#E0E0FF" stroke-width="2" stroke-miterlimit="10" stroke-linecap="round" stroke-linejoin="round"/>
<path d="M122.544 312.17L110.085 328.39L120.223 336.177L132.682 319.957L122.544 312.17Z" stroke="#E0E0FF" stroke-width="2" stroke-miterlimit="10" stroke-linecap="round" stroke-linejoin="round"/>
<path d="M75.9699 360.213L68.6622 342.027C66.429 336.121 67.3753 329.433 71.2687 324.364L77.3512 329.037C74.7037 332.483 75.0034 337.549 78.1386 340.602L83.5982 346.085" stroke="#E0E0FF" stroke-width="2" stroke-miterlimit="10" stroke-linecap="round" stroke-linejoin="round"/>
<path d="M122.691 299.388L103.236 297.017C96.9538 296.382 90.7361 299.021 86.8426 304.089L92.9251 308.762C95.5727 305.315 100.544 304.298 104.303 306.54L111.008 310.401" stroke="#E0E0FF" stroke-width="2" stroke-miterlimit="10" stroke-linecap="round" stroke-linejoin="round"/>
</g>
<g clip-path="url(#clip17_521_188)">
<path d="M199.448 603.646L184.753 611.149C183.417 611.831 181.825 612.012 180.479 611.437C177.452 610.456 174.279 612.076 173.465 615.017C172.975 616.531 172.061 617.629 170.725 618.311L156.03 625.814C154.193 626.752 151.923 626.016 150.985 624.179L142.8 608.148C142.118 606.812 142.608 605.298 143.944 604.616L189.2 581.511C190.536 580.829 192.049 581.319 192.731 582.655L200.916 598.686C202.021 600.438 201.285 602.708 199.448 603.646Z" stroke="#E0E0FF" stroke-width="2" stroke-miterlimit="10" stroke-linecap="round" stroke-linejoin="round"/>
<path d="M165.056 602.258L151.696 609.079L155.959 617.429L169.319 610.608L165.056 602.258Z" stroke="#E0E0FF" stroke-width="2" stroke-miterlimit="10" stroke-linecap="round" stroke-linejoin="round"/>
<path d="M188.435 590.322L175.076 597.143L179.339 605.492L192.698 598.672L188.435 590.322Z" stroke="#E0E0FF" stroke-width="2" stroke-miterlimit="10" stroke-linecap="round" stroke-linejoin="round"/>
<path d="M142.459 607.48L143.345 593.133C143.725 588.518 146.457 584.386 150.632 582.254L153.19 587.264C150.351 588.714 148.955 592.163 150.07 595.173L151.96 600.524" stroke="#E0E0FF" stroke-width="2" stroke-miterlimit="10" stroke-linecap="round" stroke-linejoin="round"/>
<path d="M192.557 581.902L180.417 574.205C176.456 571.807 171.507 571.597 167.332 573.728L169.89 578.738C172.728 577.289 176.342 578.181 178.125 580.849L181.351 585.518" stroke="#E0E0FF" stroke-width="2" stroke-miterlimit="10" stroke-linecap="round" stroke-linejoin="round"/>
</g>
<g clip-path="url(#clip18_521_188)">
<path d="M224.496 530.042C245.065 522.173 255.36 499.12 247.491 478.552C239.622 457.983 216.569 447.688 196.001 455.557C175.432 463.426 165.137 486.479 173.006 507.047C180.875 527.616 203.928 537.911 224.496 530.042Z" stroke="#E0E0FF" stroke-width="2" stroke-miterlimit="10"/>
<path d="M222.531 524.905C240.263 518.122 249.138 498.249 242.354 480.517C235.571 462.786 215.698 453.91 197.966 460.694C180.235 467.477 171.359 487.351 178.143 505.082C184.926 522.814 204.8 531.689 222.531 524.905Z" stroke="#E0E0FF" stroke-width="2" stroke-miterlimit="10"/>
<path d="M246.251 509.942L260.377 504.538L266.876 513.829L221.928 531.025" stroke="#E0E0FF" stroke-width="2" stroke-linejoin="round"/>
<path d="M212.214 497.937C215.051 496.851 216.471 493.671 215.386 490.834C214.3 487.997 211.12 486.577 208.283 487.663C205.446 488.748 204.026 491.928 205.112 494.765C206.197 497.602 209.377 499.022 212.214 497.937Z" stroke="#E0E0FF" stroke-width="2" stroke-miterlimit="10"/>
<path d="M206.318 482.526C210.574 480.898 212.704 476.128 211.076 471.873C209.448 467.617 204.678 465.487 200.423 467.115C196.167 468.743 194.037 473.513 195.665 477.768C197.293 482.024 202.063 484.154 206.318 482.526Z" stroke="#E0E0FF" stroke-width="2" stroke-miterlimit="10"/>
<path d="M194.535 501.752C198.789 500.125 200.919 495.357 199.291 491.103C197.664 486.849 192.896 484.719 188.642 486.347C184.387 487.974 182.258 492.742 183.886 496.997C185.513 501.251 190.281 503.38 194.535 501.752Z" stroke="#E0E0FF" stroke-width="2" stroke-miterlimit="10"/>
<path d="M208.327 518.562C212.582 516.934 214.713 512.164 213.084 507.909C211.456 503.653 206.687 501.523 202.431 503.151C198.176 504.779 196.046 509.549 197.674 513.804C199.302 518.06 204.071 520.19 208.327 518.562Z" stroke="#E0E0FF" stroke-width="2" stroke-miterlimit="10"/>
<path d="M228.875 510.701C233.13 509.073 235.26 504.303 233.632 500.048C232.004 495.792 227.234 493.662 222.979 495.29C218.723 496.918 216.593 501.688 218.221 505.944C219.849 510.199 224.619 512.329 228.875 510.701Z" stroke="#E0E0FF" stroke-width="2" stroke-miterlimit="10"/>
<path d="M227.925 488.979C232.179 487.351 234.309 482.583 232.681 478.329C231.054 474.075 226.286 471.945 222.032 473.573C217.777 475.2 215.648 479.968 217.276 484.223C218.903 488.477 223.671 490.606 227.925 488.979Z" stroke="#E0E0FF" stroke-width="2" stroke-miterlimit="10"/>
<path d="M241.795 517.536L258.49 511.149" stroke="#E0E0FF" stroke-width="2" stroke-miterlimit="10" stroke-linecap="round"/>
</g>
<g clip-path="url(#clip19_521_188)">
<path d="M286.26 773.743C304.365 767.384 313.888 747.552 307.529 729.446C301.17 711.341 281.338 701.819 263.232 708.177C245.127 714.536 235.605 734.368 241.963 752.474C248.322 770.579 268.154 780.102 286.26 773.743Z" stroke="#E0E0FF" stroke-width="2" stroke-miterlimit="10"/>
<path d="M284.672 769.221C300.28 763.739 308.489 746.643 303.007 731.034C297.525 715.426 280.429 707.217 264.821 712.699C249.212 718.181 241.003 735.277 246.485 750.886C251.967 766.494 269.064 774.703 284.672 769.221Z" stroke="#E0E0FF" stroke-width="2" stroke-miterlimit="10"/>
<path d="M305.692 756.759L318.127 752.392L323.564 760.641L283.999 774.537" stroke="#E0E0FF" stroke-width="2" stroke-linejoin="round"/>
<path d="M276.334 745.482C278.832 744.605 280.145 741.869 279.268 739.372C278.391 736.875 275.655 735.561 273.158 736.438C270.661 737.315 269.347 740.051 270.224 742.548C271.101 745.045 273.837 746.359 276.334 745.482Z" stroke="#E0E0FF" stroke-width="2" stroke-miterlimit="10"/>
<path d="M271.57 731.917C275.316 730.601 277.286 726.498 275.97 722.752C274.655 719.006 270.552 717.036 266.806 718.351C263.06 719.667 261.09 723.77 262.405 727.516C263.721 731.262 267.824 733.232 271.57 731.917Z" stroke="#E0E0FF" stroke-width="2" stroke-miterlimit="10"/>
<path d="M260.844 748.38C264.588 747.065 266.558 742.963 265.243 739.218C263.928 735.474 259.826 733.504 256.081 734.819C252.336 736.134 250.367 740.236 251.682 743.981C252.997 747.726 257.099 749.695 260.844 748.38Z" stroke="#E0E0FF" stroke-width="2" stroke-miterlimit="10"/>
<path d="M272.452 763.354C276.198 762.038 278.168 757.935 276.852 754.189C275.537 750.443 271.434 748.473 267.688 749.788C263.942 751.104 261.972 755.207 263.287 758.953C264.603 762.699 268.706 764.669 272.452 763.354Z" stroke="#E0E0FF" stroke-width="2" stroke-miterlimit="10"/>
<path d="M290.539 757.001C294.285 755.686 296.255 751.582 294.939 747.837C293.624 744.091 289.521 742.12 285.775 743.436C282.029 744.752 280.059 748.855 281.374 752.601C282.69 756.347 286.793 758.317 290.539 757.001Z" stroke="#E0E0FF" stroke-width="2" stroke-miterlimit="10"/>
<path d="M290.235 738.057C293.98 736.742 295.949 732.64 294.634 728.896C293.319 725.151 289.217 723.181 285.472 724.497C281.728 725.812 279.758 729.914 281.073 733.658C282.389 737.403 286.49 739.373 290.235 738.057Z" stroke="#E0E0FF" stroke-width="2" stroke-miterlimit="10"/>
<path d="M301.628 763.266L316.324 758.104" stroke="#E0E0FF" stroke-width="2" stroke-miterlimit="10" stroke-linecap="round"/>
</g>
<path d="M221 632.75L230.5 656.5H256.625L235.25 673.125L244.75 699.25L221 683.575L197.25 699.25L206.75 673.125L185.375 656.5H211.5L221 632.75Z" stroke="#E0E0FF" stroke-width="2" stroke-miterlimit="10" stroke-linecap="round" stroke-linejoin="round"/>
<path d="M221 675.5C224.935 675.5 228.125 672.31 228.125 668.375C228.125 664.44 224.935 661.25 221 661.25C217.065 661.25 213.875 664.44 213.875 668.375C213.875 672.31 217.065 675.5 221 675.5Z" stroke="#E0E0FF" stroke-width="2" stroke-miterlimit="10" stroke-linecap="round" stroke-linejoin="round"/>
<g clip-path="url(#clip20_521_188)">
<path d="M98.311 627.643L51.001 610.773C48.3882 609.841 45.4702 611.329 44.4836 614.096L34.6581 641.65C33.6714 644.417 34.9897 647.415 37.6026 648.347L84.9126 665.217C87.5255 666.149 90.4434 664.661 91.4301 661.894L101.256 634.34C102.242 631.573 100.924 628.574 98.311 627.643Z" stroke="#E0E0FF" stroke-width="2" stroke-miterlimit="10"/>
<path d="M99.1057 670.278L92.3234 659.389L100.362 636.844L112.504 632.704L99.1057 670.278Z" stroke="#E0E0FF" stroke-width="2" stroke-linejoin="round"/>
<path d="M65.194 615.834C70.4198 617.697 76.2557 614.722 78.229 609.188C80.2022 603.654 77.5656 597.657 72.3399 595.794C67.1142 593.93 61.2782 596.906 59.305 602.44C57.3317 607.974 59.9683 613.97 65.194 615.834Z" stroke="#E0E0FF" stroke-width="2" stroke-miterlimit="10"/>
<path d="M82.1992 620.486C85.4653 621.65 89.1127 619.791 90.346 616.332C91.5793 612.873 89.9314 609.125 86.6653 607.961C83.3993 606.796 79.7518 608.656 78.5185 612.114C77.2852 615.573 78.9331 619.321 82.1992 620.486Z" stroke="#E0E0FF" stroke-width="2" stroke-miterlimit="10"/>
<path d="M39.7526 612.409L44.4836 614.096L34.6581 641.65L29.9271 639.963C29.2997 639.739 28.7921 639.261 28.516 638.633C28.2399 638.005 28.2179 637.279 28.4548 636.615L36.4939 614.07C36.7308 613.406 37.2072 612.857 37.8183 612.546C38.4294 612.234 39.1252 612.185 39.7526 612.409Z" stroke="#E0E0FF" stroke-width="2" stroke-miterlimit="10"/>
<path d="M43.5164 650.456L50.6129 652.986L44.3603 670.521C44.1234 671.185 43.6469 671.734 43.0358 672.045C42.4247 672.357 41.7289 672.406 41.1015 672.183L38.736 671.339C38.1087 671.115 37.6011 670.637 37.325 670.009C37.0489 669.381 37.0269 668.655 37.2638 667.991L43.5164 650.456Z" stroke="#E0E0FF" stroke-width="2" stroke-miterlimit="10"/>
<path d="M54.5 634.608L47.4035 632.078C46.097 631.612 44.6381 632.356 44.1447 633.739L41.4651 641.254C40.9717 642.637 41.6309 644.137 42.9373 644.602L50.0338 647.133C51.3403 647.599 52.7992 646.855 53.2926 645.471L55.9722 637.957C56.4656 636.573 55.8064 635.074 54.5 634.608Z" stroke="#E0E0FF" stroke-width="2" stroke-miterlimit="10"/>
<path d="M86.8932 639.1C89.1795 639.916 91.7327 638.614 92.596 636.193C93.4593 633.772 92.3058 631.148 90.0195 630.333C87.7333 629.518 85.18 630.819 84.3167 633.24C83.4534 635.661 84.607 638.285 86.8932 639.1Z" stroke="#E0E0FF" stroke-width="2" stroke-miterlimit="10"/>
<path d="M51.1211 623.521C52.7542 624.103 54.5779 623.174 55.1946 621.444C55.8112 619.715 54.9873 617.841 53.3542 617.259C51.7212 616.676 49.8974 617.606 49.2808 619.335C48.6642 621.065 49.4881 622.939 51.1211 623.521Z" stroke="#E0E0FF" stroke-width="2" stroke-miterlimit="10"/>
<path d="M67.8738 608.319C69.1802 608.785 70.6392 608.041 71.1325 606.657C71.6258 605.274 70.9667 603.775 69.6602 603.309C68.3538 602.843 66.8948 603.587 66.4015 604.97C65.9082 606.354 66.5674 607.853 67.8738 608.319Z" stroke="#E0E0FF" stroke-width="2" stroke-miterlimit="10"/>
</g>
<path d="M266.5 208.438L275.375 230.625H299.781L279.812 246.156L288.688 270.562L266.5 255.919L244.312 270.562L253.188 246.156L233.219 230.625H257.625L266.5 208.438Z" stroke="#E0E0FF" stroke-width="2" stroke-miterlimit="10" stroke-linecap="round" stroke-linejoin="round"/>
<path d="M266.5 248.375C270.176 248.375 273.156 245.395 273.156 241.719C273.156 238.043 270.176 235.062 266.5 235.062C262.824 235.062 259.844 238.043 259.844 241.719C259.844 245.395 262.824 248.375 266.5 248.375Z" stroke="#E0E0FF" stroke-width="2" stroke-miterlimit="10" stroke-linecap="round" stroke-linejoin="round"/>
<path d="M5.5 47.4375L14.375 69.625H38.7812L18.8125 85.1562L27.6875 109.562L5.5 94.9187L-16.6875 109.562L-7.8125 85.1562L-27.7812 69.625H-3.375L5.5 47.4375Z" stroke="#E0E0FF" stroke-width="2" stroke-miterlimit="10" stroke-linecap="round" stroke-linejoin="round"/>
<path d="M5.5 87.375C9.17615 87.375 12.1562 84.3949 12.1562 80.7188C12.1562 77.0426 9.17615 74.0625 5.5 74.0625C1.82385 74.0625 -1.15625 77.0426 -1.15625 80.7188C-1.15625 84.3949 1.82385 87.375 5.5 87.375Z" stroke="#E0E0FF" stroke-width="2" stroke-miterlimit="10" stroke-linecap="round" stroke-linejoin="round"/>
<g clip-path="url(#clip21_521_188)">
<path d="M273.802 608.183C275.234 608.335 276.665 608.165 278.005 607.718C279.345 607.272 280.592 606.549 281.646 605.569C285.992 601.573 289.156 596.653 291.071 591.304C300.96 585.062 307.189 574.424 307.757 562.727L308.416 549.004C308.444 548.397 308.09 547.84 307.547 547.591C292.158 540.919 274.895 540.089 258.944 545.266L258.93 545.271C258.364 545.459 257.968 545.975 257.94 546.583L257.617 553.396C257.576 554.192 258.202 554.873 258.998 554.915C259.794 554.956 260.476 554.33 260.517 553.534L260.794 547.734C275.493 543.219 291.274 543.976 305.456 549.883L304.857 562.589C304.4 572.178 299.791 581.002 292.351 586.857C293.696 580.67 293.448 574.124 291.373 567.895L287.033 554.872C286.84 554.292 286.31 553.9 285.703 553.873C268.942 553.213 252.548 558.675 239.533 569.257C239.073 569.626 238.889 570.27 239.077 570.836L243.417 583.86C247.867 597.215 259.794 606.759 273.802 608.183ZM242.162 570.883C254.228 561.368 269.227 556.371 284.588 556.745L288.61 568.816C292.697 581.08 289.188 594.678 279.676 603.433C278.162 604.827 276.132 605.504 274.083 605.296C261.23 603.979 250.27 595.217 246.179 582.939L242.162 570.883Z" fill="#E0E0FF"/>
<path d="M261.061 592.926C260.808 593.685 261.222 594.514 261.982 594.767C265.867 596.066 269.968 595.988 273.697 594.745C277.412 593.507 280.755 591.105 283.084 587.735C283.54 587.077 283.375 586.166 282.716 585.71C282.058 585.254 281.147 585.42 280.691 586.078C276.768 591.758 269.458 594.179 262.916 592.001C262.129 591.757 261.314 592.166 261.061 592.926Z" fill="#E0E0FF"/>
<path d="M265.629 575.737C264.718 573.002 260.52 572.1 255.852 573.655C251.198 575.206 248.362 578.437 249.277 581.186C250.189 583.92 254.387 584.823 259.055 583.268C263.709 581.717 266.541 578.471 265.629 575.737ZM252.04 580.265C251.8 579.547 253.416 577.536 256.772 576.417C260.128 575.299 262.628 575.939 262.867 576.657C263.107 577.376 261.491 579.387 258.135 580.505C254.779 581.624 252.279 580.984 252.04 580.265Z" fill="#E0E0FF"/>
<path d="M278.501 576.788C283.155 575.237 285.991 572.006 285.075 569.257C284.164 566.523 279.966 565.62 275.297 567.176C270.629 568.731 267.807 571.958 268.723 574.706C269.634 577.441 273.846 578.339 278.501 576.788ZM276.223 569.951C279.579 568.833 282.078 569.473 282.317 570.191C282.557 570.91 280.941 572.921 277.585 574.039C274.229 575.158 271.729 574.518 271.49 573.799C271.25 573.081 272.866 571.07 276.223 569.951Z" fill="#E0E0FF"/>
</g>
<path d="M141.424 738.172C142.504 738.664 143.668 738.904 144.832 738.904C145.996 738.904 147.16 738.664 148.24 738.172C152.68 736.18 156.436 733.156 159.328 729.472C168.688 727.168 176.332 720.472 179.824 711.472L183.916 700.912C184.096 700.444 183.964 699.916 183.604 699.58C173.308 690.352 160.024 685.204 146.2 685.096H146.188C145.696 685.096 145.252 685.396 145.072 685.864L143.044 691.108C142.804 691.72 143.116 692.416 143.728 692.656C144.34 692.896 145.036 692.584 145.276 691.972L147.004 687.508C159.676 687.808 171.82 692.512 181.372 700.828L177.592 710.608C174.736 717.988 168.832 723.688 161.488 726.328C164.152 721.84 165.664 716.656 165.664 711.244V699.928C165.664 699.424 165.352 698.98 164.884 698.8C151.948 693.916 137.704 693.916 124.768 698.8C124.312 698.968 124 699.424 124 699.916V711.232C124 722.836 130.84 733.408 141.424 738.172ZM126.4 700.756C138.316 696.46 151.348 696.46 163.264 700.756V711.244C163.264 721.9 156.976 731.62 147.256 735.988C145.708 736.684 143.944 736.684 142.396 735.988C132.688 731.608 126.4 721.9 126.4 711.232V700.756Z" fill="#E0E0FF"/>
<path d="M135.436 722.92C135.04 723.448 135.148 724.204 135.676 724.6C138.376 726.628 141.604 727.636 144.844 727.636C148.072 727.636 151.312 726.628 154.012 724.6C154.54 724.204 154.648 723.448 154.252 722.92C153.856 722.392 153.1 722.284 152.572 722.68C148.024 726.1 141.676 726.088 137.128 722.68C136.576 722.284 135.832 722.392 135.436 722.92Z" fill="#E0E0FF"/>
<path d="M143.488 710.668C143.488 708.292 140.44 706.492 136.384 706.492C132.34 706.492 129.28 708.28 129.28 710.668C129.28 713.044 132.328 714.844 136.384 714.844C140.428 714.844 143.488 713.044 143.488 710.668ZM131.68 710.668C131.68 710.044 133.468 708.892 136.384 708.892C139.3 708.892 141.088 710.044 141.088 710.668C141.088 711.292 139.3 712.444 136.384 712.444C133.468 712.444 131.68 711.292 131.68 710.668Z" fill="#E0E0FF"/>
<path d="M153.28 714.844C157.324 714.844 160.384 713.056 160.384 710.668C160.384 708.292 157.336 706.492 153.28 706.492C149.224 706.492 146.176 708.28 146.176 710.668C146.176 713.044 149.236 714.844 153.28 714.844ZM153.28 708.904C156.196 708.904 157.984 710.056 157.984 710.68C157.984 711.304 156.196 712.456 153.28 712.456C150.364 712.456 148.576 711.304 148.576 710.68C148.576 710.056 150.364 708.904 153.28 708.904Z" fill="#E0E0FF"/>
<path d="M219.123 344.718C220.143 345.183 221.242 345.409 222.341 345.409C223.441 345.409 224.54 345.183 225.56 344.718C229.753 342.837 233.301 339.981 236.032 336.501C244.872 334.325 252.091 328.001 255.389 319.501L259.254 309.528C259.424 309.086 259.299 308.587 258.959 308.27C249.235 299.555 236.689 294.693 223.633 294.591H223.622C223.157 294.591 222.738 294.874 222.568 295.316L220.653 300.269C220.426 300.847 220.721 301.504 221.299 301.731C221.877 301.957 222.534 301.663 222.761 301.085L224.393 296.869C236.361 297.152 247.83 301.595 256.851 309.449L253.281 318.685C250.584 325.655 245.008 331.039 238.072 333.532C240.588 329.293 242.016 324.397 242.016 319.286V308.599C242.016 308.123 241.721 307.703 241.279 307.533C229.062 302.921 215.609 302.921 203.392 307.533C202.961 307.692 202.667 308.123 202.667 308.587V319.275C202.667 330.234 209.127 340.219 219.123 344.718ZM204.933 309.381C216.187 305.323 228.495 305.323 239.749 309.381V319.286C239.749 329.35 233.811 338.53 224.631 342.655C223.169 343.313 221.503 343.313 220.041 342.655C210.872 338.519 204.933 329.35 204.933 319.275V309.381Z" fill="#E0E0FF"/>
<path d="M213.467 330.313C213.093 330.812 213.195 331.526 213.694 331.9C216.244 333.815 219.293 334.767 222.353 334.767C225.401 334.767 228.461 333.815 231.011 331.9C231.51 331.526 231.612 330.812 231.238 330.313C230.864 329.815 230.15 329.713 229.651 330.087C225.356 333.317 219.361 333.305 215.065 330.087C214.544 329.713 213.841 329.815 213.467 330.313Z" fill="#E0E0FF"/>
<path d="M221.072 318.742C221.072 316.498 218.193 314.798 214.363 314.798C210.543 314.798 207.653 316.487 207.653 318.742C207.653 320.986 210.532 322.686 214.363 322.686C218.182 322.686 221.072 320.986 221.072 318.742ZM209.92 318.742C209.92 318.153 211.609 317.065 214.363 317.065C217.117 317.065 218.805 318.153 218.805 318.742C218.805 319.331 217.117 320.419 214.363 320.419C211.609 320.419 209.92 319.331 209.92 318.742Z" fill="#E0E0FF"/>
<path d="M230.32 322.686C234.139 322.686 237.029 320.997 237.029 318.742C237.029 316.498 234.151 314.798 230.32 314.798C226.489 314.798 223.611 316.487 223.611 318.742C223.611 320.986 226.501 322.686 230.32 322.686ZM230.32 317.076C233.074 317.076 234.763 318.164 234.763 318.753C234.763 319.343 233.074 320.431 230.32 320.431C227.566 320.431 225.877 319.343 225.877 318.753C225.877 318.164 227.566 317.076 230.32 317.076Z" fill="#E0E0FF"/>
<g clip-path="url(#clip22_521_188)">
<path d="M-21.5523 591.644C-20.7329 592.76 -19.6845 593.667 -18.4993 594.33C-17.3141 594.993 -15.9923 595.412 -14.6124 595.526C-8.95711 596.027 -3.41041 595.088 1.63252 592.984C12.475 595.969 24.0719 593.506 32.7536 586.331L42.9349 577.91C43.3847 577.536 43.5511 576.923 43.3759 576.376C38.149 561.116 27.5558 548.308 13.5421 540.324L13.5298 540.317C13.0289 540.037 12.406 540.089 11.9561 540.463L6.90433 544.647C6.31138 545.134 6.23261 546.02 6.71904 546.613C7.20546 547.206 8.09182 547.285 8.68477 546.798L12.9868 543.238C25.7182 550.761 35.4036 562.467 40.3925 576.375L30.9732 584.18C23.8617 590.067 14.6038 592.508 5.62257 591.013C10.8913 587.961 15.3835 583.544 18.4662 578.033L24.9116 566.512C25.1987 565.999 25.1339 565.369 24.76 564.919C14.3707 552.578 -0.132129 544.465 -16.0851 542.069C-16.6451 541.981 -17.2225 542.267 -17.5027 542.768L-23.9482 554.29C-30.5577 566.105 -29.6151 580.765 -21.5523 591.644ZM-15.5376 544.99C-0.958042 547.404 12.3108 554.827 21.9964 565.988L16.0225 576.666C9.95299 587.516 -1.9857 593.831 -14.3703 592.742C-16.3429 592.569 -18.139 591.564 -19.3186 589.974C-26.7083 579.985 -27.581 566.519 -21.5046 555.657L-15.5376 544.99Z" fill="#E0E0FF"/>
<path d="M-18.9617 572.704C-19.6657 573.016 -19.9863 573.847 -19.6743 574.551C-18.0804 578.154 -15.3678 581.019 -12.0689 582.865C-8.78228 584.703 -4.90925 585.522 -1.00505 584.995C-0.2419 584.893 0.298673 584.185 0.196219 583.421C0.0937656 582.658 -0.61446 582.118 -1.37761 582.22C-7.95627 583.112 -14.4128 579.484 -17.1023 573.423C-17.4388 572.706 -18.2578 572.392 -18.9617 572.704Z" fill="#E0E0FF"/>
<path d="M3.80658 574.645C7.92408 576.949 12.0581 576.871 13.4183 574.44C14.7716 572.02 12.6935 568.452 8.5638 566.141C4.43408 563.831 0.312262 563.915 -1.04792 566.347C-2.40126 568.766 -0.310914 572.342 3.80658 574.645ZM7.18995 568.597C10.1589 570.258 11.3233 572.449 10.9678 573.085C10.6124 573.72 8.13576 573.875 5.16676 572.214C2.19777 570.553 1.03344 568.361 1.38886 567.726C1.74429 567.091 4.22095 566.936 7.18995 568.597Z" fill="#E0E0FF"/>
</g>
<path d="M107.424 176.172C108.504 176.664 109.668 176.904 110.832 176.904C111.996 176.904 113.16 176.664 114.24 176.172C118.68 174.18 122.436 171.156 125.328 167.472C134.688 165.168 142.332 158.472 145.824 149.472L149.916 138.912C150.096 138.444 149.964 137.916 149.604 137.58C139.308 128.352 126.024 123.204 112.2 123.096H112.188C111.696 123.096 111.252 123.396 111.072 123.864L109.044 129.108C108.804 129.72 109.116 130.416 109.728 130.656C110.34 130.896 111.036 130.584 111.276 129.972L113.004 125.508C125.676 125.808 137.82 130.512 147.372 138.828L143.592 148.608C140.736 155.988 134.832 161.688 127.488 164.328C130.152 159.84 131.664 154.656 131.664 149.244V137.928C131.664 137.424 131.352 136.98 130.884 136.8C117.948 131.916 103.704 131.916 90.768 136.8C90.312 136.968 90 137.424 90 137.916V149.232C90 160.836 96.84 171.408 107.424 176.172ZM92.4 138.756C104.316 134.46 117.348 134.46 129.264 138.756V149.244C129.264 159.9 122.976 169.62 113.256 173.988C111.708 174.684 109.944 174.684 108.396 173.988C98.688 169.608 92.4 159.9 92.4 149.232V138.756Z" fill="#E0E0FF"/>
<path d="M101.436 160.92C101.04 161.448 101.148 162.204 101.676 162.6C104.376 164.628 107.604 165.636 110.844 165.636C114.072 165.636 117.312 164.628 120.012 162.6C120.54 162.204 120.648 161.448 120.252 160.92C119.856 160.392 119.1 160.284 118.572 160.68C114.024 164.1 107.676 164.088 103.128 160.68C102.576 160.284 101.832 160.392 101.436 160.92Z" fill="#E0E0FF"/>
<path d="M109.488 148.668C109.488 146.292 106.44 144.492 102.384 144.492C98.34 144.492 95.28 146.28 95.28 148.668C95.28 151.044 98.328 152.844 102.384 152.844C106.428 152.844 109.488 151.044 109.488 148.668ZM97.68 148.668C97.68 148.044 99.468 146.892 102.384 146.892C105.3 146.892 107.088 148.044 107.088 148.668C107.088 149.292 105.3 150.444 102.384 150.444C99.468 150.444 97.68 149.292 97.68 148.668Z" fill="#E0E0FF"/>
<path d="M119.28 152.844C123.324 152.844 126.384 151.056 126.384 148.668C126.384 146.292 123.336 144.492 119.28 144.492C115.224 144.492 112.176 146.28 112.176 148.668C112.176 151.044 115.236 152.844 119.28 152.844ZM119.28 146.904C122.196 146.904 123.984 148.056 123.984 148.68C123.984 149.304 122.196 150.456 119.28 150.456C116.364 150.456 114.576 149.304 114.576 148.68C114.576 148.056 116.364 146.904 119.28 146.904Z" fill="#E0E0FF"/>
<g clip-path="url(#clip23_521_188)">
<path d="M48.6562 197.234C63.4212 197.234 75.3906 185.265 75.3906 170.5C75.3906 155.735 63.4212 143.766 48.6562 143.766C33.8913 143.766 21.9219 155.735 21.9219 170.5C21.9219 185.265 33.8913 197.234 48.6562 197.234Z" stroke="#E0E0FF" stroke-width="2" stroke-miterlimit="10"/>
<path d="M48.6562 193.547C61.3847 193.547 71.7031 183.228 71.7031 170.5C71.7031 157.772 61.3847 147.453 48.6562 147.453C35.9278 147.453 25.6094 157.772 25.6094 170.5C25.6094 183.228 35.9278 193.547 48.6562 193.547Z" stroke="#E0E0FF" stroke-width="2" stroke-miterlimit="10"/>
<path d="M67.0938 189.859H77.2344L79.0781 197.234H46.8125" stroke="#E0E0FF" stroke-width="2" stroke-linejoin="round"/>
<path d="M48.6562 174.188C50.6928 174.188 52.3438 172.537 52.3438 170.5C52.3438 168.463 50.6928 166.812 48.6562 166.812C46.6197 166.812 44.9688 168.463 44.9688 170.5C44.9688 172.537 46.6197 174.188 48.6562 174.188Z" stroke="#E0E0FF" stroke-width="2" stroke-miterlimit="10"/>
<path d="M48.6562 163.125C51.7111 163.125 54.1875 160.649 54.1875 157.594C54.1875 154.539 51.7111 152.062 48.6562 152.062C45.6014 152.062 43.125 154.539 43.125 157.594C43.125 160.649 45.6014 163.125 48.6562 163.125Z" stroke="#E0E0FF" stroke-width="2" stroke-miterlimit="10"/>
<path d="M36.6719 172.342C39.7257 172.342 42.2013 169.866 42.2013 166.812C42.2013 163.759 39.7257 161.283 36.6719 161.283C33.6181 161.283 31.1425 163.759 31.1425 166.812C31.1425 169.866 33.6181 172.342 36.6719 172.342Z" stroke="#E0E0FF" stroke-width="2" stroke-miterlimit="10"/>
<path d="M41.2812 186.172C44.3361 186.172 46.8125 183.695 46.8125 180.641C46.8125 177.586 44.3361 175.109 41.2812 175.109C38.2264 175.109 35.75 177.586 35.75 180.641C35.75 183.695 38.2264 186.172 41.2812 186.172Z" stroke="#E0E0FF" stroke-width="2" stroke-miterlimit="10"/>
<path d="M56.0312 186.172C59.0861 186.172 61.5625 183.695 61.5625 180.641C61.5625 177.586 59.0861 175.109 56.0312 175.109C52.9764 175.109 50.5 177.586 50.5 180.641C50.5 183.695 52.9764 186.172 56.0312 186.172Z" stroke="#E0E0FF" stroke-width="2" stroke-miterlimit="10"/>
<path d="M60.6406 172.342C63.6944 172.342 66.17 169.866 66.17 166.812C66.17 163.759 63.6944 161.283 60.6406 161.283C57.5868 161.283 55.1112 163.759 55.1112 166.812C55.1112 169.866 57.5868 172.342 60.6406 172.342Z" stroke="#E0E0FF" stroke-width="2" stroke-miterlimit="10"/>
<path d="M62.4844 193.547H74.4688" stroke="#E0E0FF" stroke-width="2" stroke-miterlimit="10" stroke-linecap="round"/>
</g>
</g>
<defs>
<clipPath id="clip0_521_188">
<rect width="375" height="811" fill="white"/>
</clipPath>
<clipPath id="clip1_521_188">
<rect width="79.5963" height="79.5963" fill="white" transform="translate(104 233.381) rotate(-39.2686)"/>
</clipPath>
<clipPath id="clip2_521_188">
<rect width="96.3699" height="96.3699" fill="white" transform="translate(346.291 11) rotate(37.9696)"/>
</clipPath>
<clipPath id="clip3_521_188">
<rect width="70.5779" height="70.5779" fill="white" transform="translate(54.2086 380) rotate(20.9267)"/>
</clipPath>
<clipPath id="clip4_521_188">
<rect width="74.7052" height="74.7052" fill="white" transform="translate(106 776.157) rotate(-28.9465)"/>
</clipPath>
<clipPath id="clip5_521_188">
<rect width="112.67" height="112.67" fill="white" transform="translate(261 463.406) rotate(-28.2945)"/>
</clipPath>
<clipPath id="clip6_521_188">
<rect width="90" height="90" fill="white" transform="translate(115 366.898) rotate(-23.5075)"/>
</clipPath>
<clipPath id="clip7_521_188">
<rect width="120.445" height="120.445" fill="white" transform="translate(126 -14.3059) rotate(-21.2705)"/>
</clipPath>
<clipPath id="clip8_521_188">
<rect width="66.4355" height="66.4355" fill="white" transform="translate(-36 780.101) rotate(-21.2705)"/>
</clipPath>
<clipPath id="clip9_521_188">
<rect width="100.013" height="100.013" fill="white" transform="translate(18.8347 193) rotate(36.0345)"/>
</clipPath>
<clipPath id="clip10_521_188">
<rect width="81" height="81" fill="white" transform="translate(284 286.584) rotate(-17.6684)"/>
</clipPath>
<clipPath id="clip11_521_188">
<rect width="99" height="99" fill="white" transform="translate(281 630.373) rotate(-19.0871)"/>
</clipPath>
<clipPath id="clip12_521_188">
<rect width="88" height="88" fill="white" transform="translate(22 509.325) rotate(-34.0909)"/>
</clipPath>
<clipPath id="clip13_521_188">
<rect width="93.1349" height="93.1349" fill="white" transform="translate(170 118.567) rotate(-30)"/>
</clipPath>
<clipPath id="clip14_521_188">
<rect width="63.9941" height="63.9941" fill="white" transform="translate(237 377.194) rotate(-28.1524)"/>
</clipPath>
<clipPath id="clip15_521_188">
<rect width="63.9941" height="63.9941" fill="white" transform="translate(-42 360.194) rotate(-28.1524)"/>
</clipPath>
<clipPath id="clip16_521_188">
<rect width="81.8113" height="81.8113" fill="white" transform="translate(44 338.88) rotate(-52.4711)"/>
</clipPath>
<clipPath id="clip17_521_188">
<rect width="60" height="60" fill="white" transform="translate(128 583.283) rotate(-27.0469)"/>
</clipPath>
<clipPath id="clip18_521_188">
<rect width="88" height="88" fill="white" transform="translate(156 466.443) rotate(-20.9352)"/>
</clipPath>
<clipPath id="clip19_521_188">
<rect width="76.6803" height="76.6803" fill="white" transform="translate(228.128 716.697) rotate(-19.3518)"/>
</clipPath>
<clipPath id="clip20_521_188">
<rect width="80.3645" height="85.1025" fill="white" transform="translate(45.5833 584.841) rotate(19.6254)"/>
</clipPath>
<clipPath id="clip21_521_188">
<rect width="87.3441" height="87.3441" fill="white" transform="translate(223 545.612) rotate(-18.4293)"/>
</clipPath>
<clipPath id="clip22_521_188">
<rect width="84" height="84" fill="white" transform="translate(-9.9895 515) rotate(29.2237)"/>
</clipPath>
<clipPath id="clip23_521_188">
<rect width="59" height="59" fill="white" transform="translate(21 141)"/>
</clipPath>
</defs>
</svg>
