<svg width="249" height="177" viewBox="0 0 249 177" fill="none" xmlns="http://www.w3.org/2000/svg">
<path fill-rule="evenodd" clip-rule="evenodd" d="M127.759 174.867C173.622 174.867 210.802 137.632 210.802 91.6988C210.802 45.766 173.622 8.53011 127.759 8.53011C81.8954 8.53011 44.7157 45.766 44.7157 91.6988C44.7157 137.632 81.8954 174.867 127.759 174.867ZM127.759 177C174.798 177 212.931 138.809 212.931 91.6988C212.931 44.5882 174.798 6.39758 127.759 6.39758C80.7194 6.39758 42.5864 44.5882 42.5864 91.6988C42.5864 138.809 80.7194 177 127.759 177Z" fill="#EB5757"/>
<path d="M42.5864 51.1807C42.5864 41.7586 50.213 34.1205 59.6209 34.1205H195.897C205.305 34.1205 212.931 41.7586 212.931 51.1807V136.482C212.931 145.904 205.305 153.542 195.897 153.542H59.6209C50.213 153.542 42.5864 145.904 42.5864 136.482V51.1807Z" fill="#2F2F2F"/>
<path fill-rule="evenodd" clip-rule="evenodd" d="M195.897 36.253H59.6209C51.389 36.253 44.7157 42.9364 44.7157 51.1807V136.482C44.7157 144.726 51.389 151.41 59.6209 151.41H195.897C204.129 151.41 210.802 144.726 210.802 136.482V51.1807C210.802 42.9364 204.129 36.253 195.897 36.253ZM59.6209 34.1205C50.213 34.1205 42.5864 41.7586 42.5864 51.1807V136.482C42.5864 145.904 50.213 153.542 59.6209 153.542H195.897C205.305 153.542 212.931 145.904 212.931 136.482V51.1807C212.931 41.7586 205.305 34.1205 195.897 34.1205H59.6209Z" fill="#9C9C9C"/>
<path d="M42.5864 51.1807C42.5864 41.7586 50.213 34.1205 59.6209 34.1205H195.897C205.305 34.1205 212.931 41.7586 212.931 51.1807H42.5864Z" fill="#686868"/>
<path fill-rule="evenodd" clip-rule="evenodd" d="M195.897 36.253H59.6209C52.112 36.253 45.8999 41.814 44.8667 49.0482H210.651C209.618 41.814 203.406 36.253 195.897 36.253ZM212.799 49.0482C211.752 40.6326 204.584 34.1205 195.897 34.1205H59.6209C50.9341 34.1205 43.766 40.6326 42.7182 49.0482C42.6312 49.7468 42.5864 50.4585 42.5864 51.1807H212.931C212.931 50.4585 212.886 49.7468 212.799 49.0482Z" fill="#9C9C9C"/>
<path opacity="0.5" d="M3.17837 140.855C1.42306 136.483 3.53882 131.518 7.90405 129.765C12.2693 128.013 17.231 130.136 18.9863 134.508C20.7416 138.88 18.6258 143.845 14.2606 145.597C9.89537 147.35 4.93368 145.227 3.17837 140.855Z" fill="#EB5757"/>
<path opacity="0.3" d="M32.4937 168.151C31.6161 165.965 32.674 163.482 34.8566 162.606C37.0392 161.73 39.52 162.791 40.3977 164.977C41.2753 167.163 40.2175 169.645 38.0348 170.522C35.8522 171.398 33.3714 170.336 32.4937 168.151Z" fill="#EB5757"/>
<path d="M59.6209 42.6506C59.6209 43.8284 58.6676 44.7831 57.4916 44.7831C56.3156 44.7831 55.3623 43.8284 55.3623 42.6506C55.3623 41.4728 56.3156 40.5181 57.4916 40.5181C58.6676 40.5181 59.6209 41.4728 59.6209 42.6506Z" fill="#9C9C9C"/>
<path d="M68.138 42.6506C68.138 43.8284 67.1847 44.7831 66.0087 44.7831C64.8327 44.7831 63.8794 43.8284 63.8794 42.6506C63.8794 41.4728 64.8327 40.5181 66.0087 40.5181C67.1847 40.5181 68.138 41.4728 68.138 42.6506Z" fill="#9C9C9C"/>
<path d="M76.6551 42.6506C76.6551 43.8284 75.7018 44.7831 74.5258 44.7831C73.3498 44.7831 72.3965 43.8284 72.3965 42.6506C72.3965 41.4728 73.3498 40.5181 74.5258 40.5181C75.7018 40.5181 76.6551 41.4728 76.6551 42.6506Z" fill="#9C9C9C"/>
<path d="M14.9923 113.131C14.1146 110.945 15.1725 108.463 17.3551 107.587C19.5377 106.71 22.0186 107.772 22.8962 109.958C23.7739 112.144 22.716 114.626 20.5334 115.503C18.3508 116.379 15.8699 115.317 14.9923 113.131Z" fill="#EB5757"/>
<path d="M235.218 76.6167C235.218 79.0583 233.231 81.0377 230.781 81.0377C228.33 81.0377 226.343 79.0583 226.343 76.6167C226.343 74.175 228.33 72.1956 230.781 72.1956C233.231 72.1956 235.218 74.175 235.218 76.6167Z" fill="#EB5757"/>
<path opacity="0.3" d="M225.699 14.5033C225.699 16.945 223.712 18.9244 221.261 18.9244C218.811 18.9244 216.824 16.945 216.824 14.5033C216.824 12.0616 218.811 10.0823 221.261 10.0823C223.712 10.0823 225.699 12.0616 225.699 14.5033Z" fill="#EB5757"/>
<path opacity="0.5" d="M248.854 45.2031C248.854 50.0865 244.88 54.0452 239.978 54.0452C235.076 54.0452 231.103 50.0865 231.103 45.2031C231.103 40.3198 235.076 36.361 239.978 36.361C244.88 36.361 248.854 40.3198 248.854 45.2031Z" fill="#EB5757"/>
<path d="M103.136 65.7867L102.429 65.0796L101.722 65.7867L96.7865 70.7224L96.0794 71.4295L96.7865 72.1366L121.535 96.885L96.7865 121.633L96.0794 122.34L96.7865 123.048L101.722 127.983L102.429 128.69L103.136 127.983L127.885 103.235L152.633 127.983L153.34 128.69L154.047 127.983L158.983 123.048L159.69 122.34L158.983 121.633L134.235 96.885L158.983 72.1366L159.69 71.4295L158.983 70.7224L154.047 65.7867L153.34 65.0796L152.633 65.7867L127.885 90.5351L103.136 65.7867Z" fill="#EB5757" stroke="#9C9C9C" stroke-width="2"/>
</svg>
