<svg width="247" height="177" viewBox="0 0 247 177" fill="none" xmlns="http://www.w3.org/2000/svg">
<path d="M212.931 91.6988C212.931 138.809 174.798 177 127.759 177C80.7194 177 42.5864 138.809 42.5864 91.6988C42.5864 44.5882 80.7194 6.39758 127.759 6.39758C174.798 6.39758 212.931 44.5882 212.931 91.6988Z" fill="none"/>
<path fill-rule="evenodd" clip-rule="evenodd" d="M127.759 174.867C173.622 174.867 210.802 137.632 210.802 91.6988C210.802 45.766 173.622 8.53011 127.759 8.53011C81.8954 8.53011 44.7157 45.766 44.7157 91.6988C44.7157 137.632 81.8954 174.867 127.759 174.867ZM127.759 177C174.798 177 212.931 138.809 212.931 91.6988C212.931 44.5882 174.798 6.39758 127.759 6.39758C80.7194 6.39758 42.5864 44.5882 42.5864 91.6988C42.5864 138.809 80.7194 177 127.759 177Z" fill="#45DC67"/>
<path opacity="0.6" d="M0.000185013 117.289C0.000185013 122 3.81348 125.819 8.51743 125.819C13.2214 125.819 17.0347 122 17.0347 117.289C17.0347 112.578 13.2214 108.759 8.51743 108.759C3.81348 108.759 0.000185013 112.578 0.000185013 117.289Z" fill="#45DC67"/>
<path opacity="0.3" d="M17.0345 81.0362C17.0345 83.3917 18.9412 85.3012 21.2931 85.3012C23.6451 85.3012 25.5518 83.3917 25.5518 81.0362C25.5518 78.6807 23.6451 76.7711 21.2931 76.7711C18.9412 76.7711 17.0345 78.6807 17.0345 81.0362Z" fill="#45DC67"/>
<path d="M21.2933 138.614C21.2933 140.97 23.2 142.879 25.5519 142.879C27.9039 142.879 29.8105 140.97 29.8105 138.614C29.8105 136.259 27.9039 134.349 25.5519 134.349C23.2 134.349 21.2933 136.259 21.2933 138.614Z" fill="#45DC67"/>
<path opacity="0.3" d="M227.26 87.1152C227.26 89.2947 225.482 91.0616 223.289 91.0616C221.097 91.0616 219.319 89.2947 219.319 87.1152C219.319 84.9356 221.097 83.1687 223.289 83.1687C225.482 83.1687 227.26 84.9356 227.26 87.1152Z" fill="#45DC67"/>
<path d="M218.743 31.6694C218.743 33.8489 216.965 35.6158 214.772 35.6158C212.579 35.6158 210.802 33.8489 210.802 31.6694C210.802 29.4898 212.579 27.7229 214.772 27.7229C216.965 27.7229 218.743 29.4898 218.743 31.6694Z" fill="#45DC67"/>
<path opacity="0.5" d="M239.46 59.0737C239.46 63.4328 235.905 66.9666 231.519 66.9666C227.133 66.9666 223.578 63.4328 223.578 59.0737C223.578 54.7145 227.133 51.1807 231.519 51.1807C235.905 51.1807 239.46 54.7145 239.46 59.0737Z" fill="#45DC67"/>
<path d="M42.5864 49.0482C42.5864 39.6261 50.213 31.988 59.6209 31.988H195.897C205.305 31.988 212.931 39.6261 212.931 49.0482V134.349C212.931 143.772 205.305 151.41 195.897 151.41H59.6209C50.213 151.41 42.5864 143.772 42.5864 134.349V49.0482Z" fill="#2F2F2F"/>
<path fill-rule="evenodd" clip-rule="evenodd" d="M195.897 34.1205H59.6209C51.389 34.1205 44.7157 40.8039 44.7157 49.0482V134.349C44.7157 142.594 51.389 149.277 59.6209 149.277H195.897C204.129 149.277 210.802 142.594 210.802 134.349V49.0482C210.802 40.8039 204.129 34.1205 195.897 34.1205ZM59.6209 31.988C50.213 31.988 42.5864 39.6261 42.5864 49.0482V134.349C42.5864 143.772 50.213 151.41 59.6209 151.41H195.897C205.305 151.41 212.931 143.772 212.931 134.349V49.0482C212.931 39.6261 205.305 31.988 195.897 31.988H59.6209Z" fill="#9C9C9C"/>
<path d="M42.5864 49.0482C42.5864 39.6261 50.213 31.988 59.6209 31.988H195.897C205.305 31.988 212.931 39.6261 212.931 49.0482V49.0482H42.5864V49.0482Z" fill="#686868"/>
<path fill-rule="evenodd" clip-rule="evenodd" d="M195.897 34.1205H59.6209C52.112 34.1205 45.8999 39.6815 44.8667 46.9157H210.651C209.618 39.6815 203.406 34.1205 195.897 34.1205ZM212.799 46.9157C211.752 38.5001 204.584 31.988 195.897 31.988H59.6209C50.9341 31.988 43.766 38.5001 42.7182 46.9157C42.6312 47.6143 42.5864 48.326 42.5864 49.0482H212.931C212.931 48.326 212.886 47.6143 212.799 46.9157Z" fill="#9C9C9C"/>
<path d="M59.6209 40.5181C59.6209 41.6959 58.6676 42.6506 57.4916 42.6506C56.3156 42.6506 55.3623 41.6959 55.3623 40.5181C55.3623 39.3403 56.3156 38.3856 57.4916 38.3856C58.6676 38.3856 59.6209 39.3403 59.6209 40.5181Z" fill="#9C9C9C"/>
<path d="M68.138 40.5181C68.138 41.6959 67.1847 42.6506 66.0087 42.6506C64.8327 42.6506 63.8794 41.6959 63.8794 40.5181C63.8794 39.3403 64.8327 38.3856 66.0087 38.3856C67.1847 38.3856 68.138 39.3403 68.138 40.5181Z" fill="#9C9C9C"/>
<path d="M76.6556 40.5181C76.6556 41.6959 75.7023 42.6506 74.5263 42.6506C73.3503 42.6506 72.397 41.6959 72.397 40.5181C72.397 39.3403 73.3503 38.3856 74.5263 38.3856C75.7023 38.3856 76.6556 39.3403 76.6556 40.5181Z" fill="#9C9C9C"/>
<path d="M176.832 72.9436L163.759 59.7108L114.735 110.436L90.7682 88.3818L78.7847 100.512L114.735 134.697L176.832 72.9436Z" fill="#45DC67"/>
<path fill-rule="evenodd" clip-rule="evenodd" d="M164.502 59.7108C164.792 59.7092 165.071 59.8249 165.276 60.032L178.297 73.1928C178.502 73.3997 178.616 73.6806 178.615 73.9732C178.613 74.2657 178.496 74.5456 178.29 74.7506L116.439 136.168C116.023 136.58 115.36 136.588 114.935 136.185L79.1268 102.186C78.9128 101.983 78.7894 101.7 78.7848 101.404C78.7802 101.107 78.8948 100.821 79.1025 100.611L91.0387 88.547C91.4483 88.1331 92.1073 88.1172 92.5359 88.511L115.634 109.734L163.733 60.0406C163.935 59.8312 164.212 59.7124 164.502 59.7108ZM164.517 62.3671L116.454 112.024C116.046 112.446 115.38 112.466 114.948 112.069L91.8416 90.8375L81.4287 101.362L115.662 133.864L175.988 73.9614L164.517 62.3671Z" fill="#9C9C9C"/>
</svg>
